<?xml version="1.0" encoding="UTF-8" standalone="no"?>
<!-- Created with Inkscape (http://www.inkscape.org/) -->

<svg
   xmlns:dc="http://purl.org/dc/elements/1.1/"
   xmlns:cc="http://creativecommons.org/ns#"
   xmlns:rdf="http://www.w3.org/1999/02/22-rdf-syntax-ns#"
   xmlns:svg="http://www.w3.org/2000/svg"
   xmlns="http://www.w3.org/2000/svg"
   xmlns:sodipodi="http://sodipodi.sourceforge.net/DTD/sodipodi-0.dtd"
   xmlns:inkscape="http://www.inkscape.org/namespaces/inkscape"
   width="152.85851mm"
   height="1975.4406mm"
   viewBox="0 0 541.62462 6999.5925"
   id="svg28634"
   version="1.1"
   inkscape:version="0.91 r13725"
   sodipodi:docname="banner.svg">
  <defs
     id="defs28636" />
  <sodipodi:namedview
     id="base"
     pagecolor="#ffffff"
     bordercolor="#666666"
     borderopacity="1.0"
     inkscape:pageopacity="0.0"
     inkscape:pageshadow="2"
     inkscape:zoom="0.35"
     inkscape:cx="779.51218"
     inkscape:cy="908.63544"
     inkscape:document-units="px"
     inkscape:current-layer="layer1"
     showgrid="false"
     fit-margin-top="0"
     fit-margin-left="0"
     fit-margin-right="0"
     fit-margin-bottom="0"
     inkscape:window-width="1280"
     inkscape:window-height="751"
     inkscape:window-x="0"
     inkscape:window-y="1"
     inkscape:window-maximized="1" />
  <metadata
     id="metadata28639">
    <rdf:RDF>
      <cc:Work
         rdf:about="">
        <dc:format>image/svg+xml</dc:format>
        <dc:type
           rdf:resource="http://purl.org/dc/dcmitype/StillImage" />
        <dc:title></dc:title>
      </cc:Work>
    </rdf:RDF>
  </metadata>
  <g
     inkscape:label="Ebene 1"
     inkscape:groupmode="layer"
     id="layer1"
     transform="translate(-20.097164,1090.1538)">
    <g
       transform="matrix(1.9760721,0,0,1.9760721,-5217.9948,490.89373)"
       id="g28441">
      <g
         transform="matrix(0.30405913,-0.11880722,0.11880722,0.30405913,2160.4897,1137.3184)"
         id="g12724">
        <path
           style="fill:#ef4b53;fill-opacity:1;stroke:none;stroke-width:30;stroke-linecap:round;stroke-miterlimit:4;stroke-dasharray:none;stroke-opacity:1"
           d="m 1565.7142,1132.3622 c 0,93.0994 -79.9491,205.7142 -178.5714,205.7143 -98.6223,-10e-5 -178.5714,-112.6149 -178.5714,-205.7143 0,-93.0994 79.9491,-122.8571 178.5714,-122.8572 98.6223,10e-5 178.5714,29.7578 178.5714,122.8572 z"
           id="path12709"
           inkscape:connector-curvature="0"
           sodipodi:nodetypes="sssss" />
        <path
           sodipodi:type="star"
           style="fill:#2aae4a;fill-opacity:1;stroke:none;stroke-width:30;stroke-linecap:round;stroke-miterlimit:4;stroke-dasharray:none;stroke-opacity:1"
           id="path12712"
           sodipodi:sides="5"
           sodipodi:cx="1802.8571"
           sodipodi:cy="638.07648"
           sodipodi:r1="170.90396"
           sodipodi:r2="70.070625"
           sodipodi:arg1="0.6669082"
           sodipodi:arg2="1.2952267"
           inkscape:flatsided="false"
           inkscape:rounded="0.14"
           inkscape:randomized="0"
           d="m 1937.1428,743.79076 c -10.5143,13.35603 -98.8631,-42.91249 -115.2199,-38.2874 -16.3567,4.62509 -62.1581,98.8264 -78.1095,92.95393 -15.9515,-5.87247 10.2618,-107.28509 0.8086,-121.41203 -9.4533,-14.12695 -113.1975,-28.57687 -112.5417,-45.56227 0.6558,-16.98541 105.2053,-23.39335 115.7196,-36.74937 10.5143,-13.35602 -7.8017,-116.48787 8.555,-121.11296 16.3568,-4.62509 54.7586,92.82721 70.7101,98.69968 15.9514,5.87247 108.3757,-43.4166 117.8289,-29.28966 9.4532,14.12695 -71.3626,80.76372 -72.0184,97.74913 -0.6558,16.9854 74.7816,89.65493 64.2673,103.01095 z"
           inkscape:transform-center-x="13.987015"
           inkscape:transform-center-y="-0.83440739"
           transform="matrix(1,0,0,0.42024329,-408.57143,751.63514)" />
        <circle
           style="fill:#895a4b;fill-opacity:1;stroke:none;stroke-width:30;stroke-linecap:round;stroke-miterlimit:4;stroke-dasharray:none;stroke-opacity:1"
           id="ellipse9294"
           cx="1284.2858"
           cy="1105.2194"
           r="15.714284" />
        <circle
           r="15.714284"
           cy="1159.5051"
           cx="1521.4286"
           id="circle12714"
           style="fill:#895a4b;fill-opacity:1;stroke:none;stroke-width:30;stroke-linecap:round;stroke-miterlimit:4;stroke-dasharray:none;stroke-opacity:1" />
        <circle
           style="fill:#895a4b;fill-opacity:1;stroke:none;stroke-width:30;stroke-linecap:round;stroke-miterlimit:4;stroke-dasharray:none;stroke-opacity:1"
           id="circle12716"
           cx="1467.1429"
           cy="1282.3622"
           r="15.714284" />
        <circle
           r="15.714284"
           cy="1265.2194"
           cx="1321.4286"
           id="circle12718"
           style="fill:#895a4b;fill-opacity:1;stroke:none;stroke-width:30;stroke-linecap:round;stroke-miterlimit:4;stroke-dasharray:none;stroke-opacity:1" />
        <circle
           style="fill:#895a4b;fill-opacity:1;stroke:none;stroke-width:30;stroke-linecap:round;stroke-miterlimit:4;stroke-dasharray:none;stroke-opacity:1"
           id="circle12720"
           cx="1370"
           cy="1173.7908"
           r="15.714284" />
        <circle
           r="15.714284"
           cy="1090.9336"
           cx="1432.8572"
           id="circle12722"
           style="fill:#895a4b;fill-opacity:1;stroke:none;stroke-width:30;stroke-linecap:round;stroke-miterlimit:4;stroke-dasharray:none;stroke-opacity:1" />
      </g>
      <g
         transform="matrix(0.65929385,0,0,0.65929385,1368.8296,-591.13559)"
         id="g12797">
        <g
           transform="matrix(0.35766592,-0.13975339,0.13975339,0.35766592,1528.8285,414.57768)"
           id="g12752">
          <path
             style="fill:#ef4b53;fill-opacity:1;stroke:none;stroke-width:30;stroke-linecap:round;stroke-miterlimit:4;stroke-dasharray:none;stroke-opacity:1"
             d="m 1565.7142,1132.3622 c 0,93.0994 -79.9491,205.7142 -178.5714,205.7143 -98.6223,-10e-5 -178.5714,-112.6149 -178.5714,-205.7143 0,-93.0994 79.9491,-122.8571 178.5714,-122.8572 98.6223,10e-5 178.5714,29.7578 178.5714,122.8572 z"
             id="path12754"
             inkscape:connector-curvature="0"
             sodipodi:nodetypes="sssss" />
          <path
             sodipodi:type="star"
             style="fill:#2aae4a;fill-opacity:1;stroke:none;stroke-width:30;stroke-linecap:round;stroke-miterlimit:4;stroke-dasharray:none;stroke-opacity:1"
             id="path12756"
             sodipodi:sides="5"
             sodipodi:cx="1802.8571"
             sodipodi:cy="638.07648"
             sodipodi:r1="170.90396"
             sodipodi:r2="70.070625"
             sodipodi:arg1="0.6669082"
             sodipodi:arg2="1.2952267"
             inkscape:flatsided="false"
             inkscape:rounded="0.14"
             inkscape:randomized="0"
             d="m 1937.1428,743.79076 c -10.5143,13.35603 -98.8631,-42.91249 -115.2199,-38.2874 -16.3567,4.62509 -62.1581,98.8264 -78.1095,92.95393 -15.9515,-5.87247 10.2618,-107.28509 0.8086,-121.41203 -9.4533,-14.12695 -113.1975,-28.57687 -112.5417,-45.56227 0.6558,-16.98541 105.2053,-23.39335 115.7196,-36.74937 10.5143,-13.35602 -7.8017,-116.48787 8.555,-121.11296 16.3568,-4.62509 54.7586,92.82721 70.7101,98.69968 15.9514,5.87247 108.3757,-43.4166 117.8289,-29.28966 9.4532,14.12695 -71.3626,80.76372 -72.0184,97.74913 -0.6558,16.9854 74.7816,89.65493 64.2673,103.01095 z"
             inkscape:transform-center-x="13.987015"
             inkscape:transform-center-y="-0.83440739"
             transform="matrix(1,0,0,0.42024329,-408.57143,751.63514)" />
          <circle
             style="fill:#895a4b;fill-opacity:1;stroke:none;stroke-width:30;stroke-linecap:round;stroke-miterlimit:4;stroke-dasharray:none;stroke-opacity:1"
             id="circle12758"
             cx="1284.2858"
             cy="1105.2194"
             r="15.714284" />
          <circle
             r="15.714284"
             cy="1159.5051"
             cx="1521.4286"
             id="circle12760"
             style="fill:#895a4b;fill-opacity:1;stroke:none;stroke-width:30;stroke-linecap:round;stroke-miterlimit:4;stroke-dasharray:none;stroke-opacity:1" />
          <circle
             style="fill:#895a4b;fill-opacity:1;stroke:none;stroke-width:30;stroke-linecap:round;stroke-miterlimit:4;stroke-dasharray:none;stroke-opacity:1"
             id="circle12762"
             cx="1467.1429"
             cy="1282.3622"
             r="15.714284" />
          <circle
             r="15.714284"
             cy="1265.2194"
             cx="1321.4286"
             id="circle12764"
             style="fill:#895a4b;fill-opacity:1;stroke:none;stroke-width:30;stroke-linecap:round;stroke-miterlimit:4;stroke-dasharray:none;stroke-opacity:1" />
          <circle
             style="fill:#895a4b;fill-opacity:1;stroke:none;stroke-width:30;stroke-linecap:round;stroke-miterlimit:4;stroke-dasharray:none;stroke-opacity:1"
             id="circle12766"
             cx="1370"
             cy="1173.7908"
             r="15.714284" />
          <circle
             r="15.714284"
             cy="1090.9336"
             cx="1432.8572"
             id="circle12768"
             style="fill:#895a4b;fill-opacity:1;stroke:none;stroke-width:30;stroke-linecap:round;stroke-miterlimit:4;stroke-dasharray:none;stroke-opacity:1" />
        </g>
        <path
           style="fill:#ef4b53;fill-opacity:1;stroke:#faf1d7;stroke-width:5;stroke-linecap:round;stroke-miterlimit:4;stroke-dasharray:none;stroke-opacity:1"
           d="m 2221.606,617.94378 c -13.0109,33.29848 -0.1542,84.75012 35.1197,98.53295 35.2738,13.78277 79.6072,-15.32255 92.6181,-48.62103 13.011,-33.29848 -11.4253,-55.11496 -46.6992,-68.89779 -35.2738,-13.78277 -68.0276,-14.31261 -81.0386,18.98587 z"
           id="path12772"
           inkscape:connector-curvature="0"
           sodipodi:nodetypes="sssss" />
        <path
           sodipodi:type="star"
           style="fill:#2aae4a;fill-opacity:1;stroke:none;stroke-width:30;stroke-linecap:round;stroke-miterlimit:4;stroke-dasharray:none;stroke-opacity:1"
           id="path12774"
           sodipodi:sides="5"
           sodipodi:cx="1802.8571"
           sodipodi:cy="638.07648"
           sodipodi:r1="170.90396"
           sodipodi:r2="70.070625"
           sodipodi:arg1="0.6669082"
           sodipodi:arg2="1.2952267"
           inkscape:flatsided="false"
           inkscape:rounded="0.14"
           inkscape:randomized="0"
           d="m 1937.1428,743.79076 c -10.5143,13.35603 -98.8631,-42.91249 -115.2199,-38.2874 -16.3567,4.62509 -62.1581,98.8264 -78.1095,92.95393 -15.9515,-5.87247 10.2618,-107.28509 0.8086,-121.41203 -9.4533,-14.12695 -113.1975,-28.57687 -112.5417,-45.56227 0.6558,-16.98541 105.2053,-23.39335 115.7196,-36.74937 10.5143,-13.35602 -7.8017,-116.48787 8.555,-121.11296 16.3568,-4.62509 54.7586,92.82721 70.7101,98.69968 15.9514,5.87247 108.3757,-43.4166 117.8289,-29.28966 9.4532,14.12695 -71.3626,80.76372 -72.0184,97.74913 -0.6558,16.9854 74.7816,89.65493 64.2673,103.01095 z"
           inkscape:transform-center-x="13.987015"
           inkscape:transform-center-y="-0.83440739"
           transform="matrix(-0.35766592,-0.13975339,-0.05873042,0.1503067,2980.9486,757.6838)" />
        <circle
           style="fill:#895a4b;fill-opacity:1;stroke:none;stroke-width:30;stroke-linecap:round;stroke-miterlimit:4;stroke-dasharray:none;stroke-opacity:1"
           id="circle12776"
           cx="-2402.2163"
           cy="-243.39047"
           r="6.0342836"
           transform="matrix(-0.93142192,-0.36394122,-0.36394122,0.93142192,0,0)" />
        <circle
           r="6.0342836"
           cy="-222.54477"
           cx="-2311.1536"
           id="circle12778"
           style="fill:#895a4b;fill-opacity:1;stroke:none;stroke-width:30;stroke-linecap:round;stroke-miterlimit:4;stroke-dasharray:none;stroke-opacity:1"
           transform="matrix(-0.93142192,-0.36394122,-0.36394122,0.93142192,0,0)" />
        <circle
           style="fill:#895a4b;fill-opacity:1;stroke:none;stroke-width:30;stroke-linecap:round;stroke-miterlimit:4;stroke-dasharray:none;stroke-opacity:1"
           id="circle12780"
           cx="-2331.9993"
           cy="-175.36765"
           r="6.0342836"
           transform="matrix(-0.93142192,-0.36394122,-0.36394122,0.93142192,0,0)" />
        <circle
           r="6.0342836"
           cy="-181.9505"
           cx="-2387.9534"
           id="circle12782"
           style="fill:#895a4b;fill-opacity:1;stroke:none;stroke-width:30;stroke-linecap:round;stroke-miterlimit:4;stroke-dasharray:none;stroke-opacity:1"
           transform="matrix(-0.93142192,-0.36394122,-0.36394122,0.93142192,0,0)" />
        <circle
           style="fill:#895a4b;fill-opacity:1;stroke:none;stroke-width:30;stroke-linecap:round;stroke-miterlimit:4;stroke-dasharray:none;stroke-opacity:1"
           id="circle12784"
           cx="-2369.302"
           cy="-217.05908"
           r="6.0342836"
           transform="matrix(-0.93142192,-0.36394122,-0.36394122,0.93142192,0,0)" />
        <circle
           r="6.0342836"
           cy="-248.87622"
           cx="-2345.1648"
           id="circle12786"
           style="fill:#895a4b;fill-opacity:1;stroke:none;stroke-width:30;stroke-linecap:round;stroke-miterlimit:4;stroke-dasharray:none;stroke-opacity:1"
           transform="matrix(-0.93142192,-0.36394122,-0.36394122,0.93142192,0,0)" />
      </g>
      <ellipse
         transform="matrix(0,1,-1,0,0,0)"
         ry="41.7328"
         rx="43.305294"
         cy="-2710.4451"
         cx="-633.39807"
         id="ellipse27016"
         style="fill:#efc043;fill-opacity:1;stroke:none;stroke-width:30;stroke-linecap:round;stroke-miterlimit:4;stroke-dasharray:none;stroke-opacity:1" />
      <ellipse
         transform="matrix(0,1,-1,0,0,0)"
         ry="24.919498"
         rx="25.06308"
         cy="-2867.4875"
         cx="-408.32764"
         id="ellipse27018"
         style="fill:#e25a00;fill-opacity:1;stroke:none;stroke-width:30;stroke-linecap:round;stroke-miterlimit:4;stroke-dasharray:none;stroke-opacity:1" />
      <ellipse
         transform="matrix(0,1,-1,0,0,0)"
         ry="38.571426"
         rx="41.817249"
         cy="-2689.9719"
         cx="24.034414"
         id="ellipse27020"
         style="fill:#72a08d;fill-opacity:1;stroke:none;stroke-width:30;stroke-linecap:round;stroke-miterlimit:4;stroke-dasharray:none;stroke-opacity:1" />
      <ellipse
         transform="matrix(0,1,-1,0,0,0)"
         ry="17.04133"
         rx="18.613482"
         cy="-2830.9624"
         cx="333.73022"
         id="ellipse27022"
         style="fill:#4ab9d5;fill-opacity:1;stroke:none;stroke-width:30;stroke-linecap:round;stroke-miterlimit:4;stroke-dasharray:none;stroke-opacity:1" />
      <ellipse
         transform="matrix(0,1,-1,0,0,0)"
         ry="41.832123"
         rx="43.317612"
         cy="-2849.8159"
         cx="-756.77844"
         id="ellipse27681"
         style="fill:#61cbe6;fill-opacity:1;stroke:none;stroke-width:30;stroke-linecap:round;stroke-miterlimit:4;stroke-dasharray:none;stroke-opacity:1" />
      <ellipse
         transform="matrix(0,1,-1,0,0,0)"
         ry="42.680248"
         rx="41.817249"
         cy="-2705.863"
         cx="492.60571"
         id="ellipse27683"
         style="fill:#895a4b;fill-opacity:1;stroke:none;stroke-width:30;stroke-linecap:round;stroke-miterlimit:4;stroke-dasharray:none;stroke-opacity:1" />
      <ellipse
         transform="matrix(0,1,-1,0,0,0)"
         ry="22.267502"
         rx="21.817251"
         cy="-2691.99"
         cx="655.46289"
         id="ellipse27701"
         style="fill:#2aae4a;fill-opacity:1;stroke:none;stroke-width:30;stroke-linecap:round;stroke-miterlimit:4;stroke-dasharray:none;stroke-opacity:1" />
      <ellipse
         style="fill:#d87058;fill-opacity:1;stroke:#faf1d7;stroke-width:1.42034471;stroke-linecap:round;stroke-miterlimit:4;stroke-dasharray:none;stroke-opacity:1"
         id="ellipse28419"
         cx="2872.9143"
         cy="708.47632"
         rx="29.691147"
         ry="27.732845" />
      <ellipse
         ry="25.183609"
         rx="24.674395"
         cy="1167.0016"
         cx="2865.7827"
         id="ellipse28421"
         style="fill:#2aae4a;fill-opacity:1;stroke:none;stroke-width:30;stroke-linecap:round;stroke-miterlimit:4;stroke-dasharray:none;stroke-opacity:1" />
      <ellipse
         ry="54.835392"
         rx="59.805161"
         cy="998.73315"
         cx="2710.5647"
         id="ellipse28423"
         style="fill:#efc043;fill-opacity:1;stroke:none;stroke-width:30;stroke-linecap:round;stroke-miterlimit:4;stroke-dasharray:none;stroke-opacity:1" />
      <ellipse
         ry="27.04133"
         rx="29.004778"
         cy="1872.256"
         cx="2885.8699"
         id="ellipse28425"
         style="fill:#ef4b53;fill-opacity:1;stroke:none;stroke-width:30;stroke-linecap:round;stroke-miterlimit:4;stroke-dasharray:none;stroke-opacity:1" />
      <ellipse
         style="fill:#61cbe6;fill-opacity:1;stroke:none;stroke-width:30;stroke-linecap:round;stroke-miterlimit:4;stroke-dasharray:none;stroke-opacity:1"
         id="ellipse28427"
         cx="2869.5605"
         cy="1589.6418"
         rx="43.317612"
         ry="41.832123" />
      <ellipse
         ry="14.919499"
         rx="17.920221"
         cy="1635.7307"
         cx="2689.135"
         id="ellipse28429"
         style="fill:#e25a00;fill-opacity:1;stroke:none;stroke-width:30;stroke-linecap:round;stroke-miterlimit:4;stroke-dasharray:none;stroke-opacity:1" />
      <ellipse
         style="fill:#895a4b;fill-opacity:1;stroke:none;stroke-width:30;stroke-linecap:round;stroke-miterlimit:4;stroke-dasharray:none;stroke-opacity:1"
         id="ellipse28431"
         cx="1752.6057"
         cy="-2783.0059"
         rx="21.817249"
         ry="22.680248"
         transform="matrix(0,1,-1,0,0,0)" />
      <ellipse
         style="fill:#efc043;fill-opacity:1;stroke:none;stroke-width:30;stroke-linecap:round;stroke-miterlimit:4;stroke-dasharray:none;stroke-opacity:1"
         id="ellipse28433"
         cx="2149.459"
         cy="-2847.5879"
         rx="43.305294"
         ry="41.7328"
         transform="matrix(0,1,-1,0,0,0)" />
      <ellipse
         style="fill:#72a08d;fill-opacity:1;stroke:none;stroke-width:30;stroke-linecap:round;stroke-miterlimit:4;stroke-dasharray:none;stroke-opacity:1"
         id="ellipse28435"
         cx="2326.8916"
         cy="-2678.5435"
         rx="24.674393"
         ry="27.142855"
         transform="matrix(0,1,-1,0,0,0)" />
      <ellipse
         style="fill:#2aae4a;fill-opacity:1;stroke:none;stroke-width:30;stroke-linecap:round;stroke-miterlimit:4;stroke-dasharray:none;stroke-opacity:1"
         id="ellipse28437"
         cx="2813.5454"
         cy="2498.4302"
         rx="63.865593"
         ry="65.183609" />
      <ellipse
         style="fill:#e25a00;fill-opacity:1;stroke:none;stroke-width:30;stroke-linecap:round;stroke-miterlimit:4;stroke-dasharray:none;stroke-opacity:1"
         id="ellipse28439"
         cx="2734.8494"
         cy="2727.1592"
         rx="17.920221"
         ry="14.919499" />
    </g>
  </g>
</svg>
