<?xml version="1.0" encoding="UTF-8" standalone="no"?>
<!-- Created with Inkscape (http://www.inkscape.org/) -->

<svg
   xmlns:dc="http://purl.org/dc/elements/1.1/"
   xmlns:cc="http://creativecommons.org/ns#"
   xmlns:rdf="http://www.w3.org/1999/02/22-rdf-syntax-ns#"
   xmlns:svg="http://www.w3.org/2000/svg"
   xmlns="http://www.w3.org/2000/svg"
   xmlns:sodipodi="http://sodipodi.sourceforge.net/DTD/sodipodi-0.dtd"
   xmlns:inkscape="http://www.inkscape.org/namespaces/inkscape"
   width="137.13834mm"
   height="179.78976mm"
   viewBox="0 0 485.92324 637.05034"
   id="svg12861"
   version="1.1"
   inkscape:version="0.91 r13725"
   sodipodi:docname="birdred.svg">
  <defs
     id="defs12863" />
  <sodipodi:namedview
     id="base"
     pagecolor="#ffffff"
     bordercolor="#666666"
     borderopacity="1.0"
     inkscape:pageopacity="0.0"
     inkscape:pageshadow="2"
     inkscape:zoom="0.35"
     inkscape:cx="-167.94508"
     inkscape:cy="132.81087"
     inkscape:document-units="px"
     inkscape:current-layer="layer1"
     showgrid="false"
     fit-margin-top="0"
     fit-margin-left="0"
     fit-margin-right="0"
     fit-margin-bottom="0"
     inkscape:window-width="1280"
     inkscape:window-height="751"
     inkscape:window-x="0"
     inkscape:window-y="1"
     inkscape:window-maximized="1" />
  <metadata
     id="metadata12866">
    <rdf:RDF>
      <cc:Work
         rdf:about="">
        <dc:format>image/svg+xml</dc:format>
        <dc:type
           rdf:resource="http://purl.org/dc/dcmitype/StillImage" />
        <dc:title></dc:title>
      </cc:Work>
    </rdf:RDF>
  </metadata>
  <g
     inkscape:label="Ebene 1"
     inkscape:groupmode="layer"
     id="layer1"
     transform="translate(-27.230798,-28.122708)">
    <g
       transform="matrix(2.3478278,0,0,2.3478278,-4336.4242,4772.2736)"
       id="g12816">
      <g
         style="stroke-width:2.67465353;stroke-miterlimit:4;stroke-dasharray:none"
         transform="matrix(1.4955208,0,0,1.4955208,1171.9967,-2166.9466)"
         id="g6085">
        <rect
           ry="2.5463798"
           y="234.84988"
           x="493.55197"
           height="34.12149"
           width="2.5463798"
           id="rect6073"
           style="fill:#895a4b;fill-opacity:1;stroke:none;stroke-width:2.67465353;stroke-linecap:round;stroke-miterlimit:4;stroke-dasharray:none;stroke-opacity:1" />
        <rect
           style="fill:#895a4b;fill-opacity:1;stroke:none;stroke-width:2.67465353;stroke-linecap:round;stroke-miterlimit:4;stroke-dasharray:none;stroke-opacity:1"
           id="rect6079"
           width="2.5463798"
           height="34.12149"
           x="517.48053"
           y="234.49274"
           ry="2.5463798" />
        <rect
           ry="2.5463798"
           y="-29.888485"
           x="581.22418"
           height="13.750433"
           width="2.5464544"
           id="rect6081"
           style="fill:#895a4b;fill-opacity:1;stroke:none;stroke-width:2.67465353;stroke-linecap:round;stroke-miterlimit:4;stroke-dasharray:none;stroke-opacity:1"
           transform="matrix(0.86506613,0.50165784,-0.50165784,0.86506613,0,0)" />
        <rect
           style="fill:#895a4b;fill-opacity:1;stroke:none;stroke-width:2.67465353;stroke-linecap:round;stroke-miterlimit:4;stroke-dasharray:none;stroke-opacity:1"
           id="rect6083"
           width="2.5464544"
           height="13.750433"
           x="387.19943"
           y="434.48349"
           ry="2.5463798"
           transform="matrix(0.93330921,-0.3590737,0.3590737,0.93330921,0,0)" />
        <path
           style="fill:#fec42b;fill-opacity:1;stroke:none;stroke-width:2.67465353;stroke-linecap:round;stroke-miterlimit:4;stroke-dasharray:none;stroke-opacity:1"
           d="m 553.26486,158.34221 c 0,0 24.43897,-16.50996 33.97113,-9.5303 5.47513,4.00901 -3.17229,15.66797 1.07767,20.55073 4.60262,5.28793 10.95356,10.02419 8.71579,15.53433 -4.48322,11.03907 -33.97113,9.53031 -33.97113,9.53031 -9.83131,2.75814 -19.93002,-3.06845 -22.64282,-13.06403 -2.71275,-9.99553 3.01805,-20.2629 12.84936,-23.02104 z"
           id="path6035"
           inkscape:connector-curvature="0"
           sodipodi:nodetypes="sasasss" />
        <path
           sodipodi:nodetypes="sasasss"
           inkscape:connector-curvature="0"
           id="path6037"
           d="m 547.37393,159.78793 c 0,0 24.43891,-16.2387 33.97108,-9.37379 5.47512,3.94317 -3.17229,15.41055 1.07767,20.21311 4.60262,5.20107 10.84527,9.81608 8.71579,15.27913 -4.14999,10.6464 -32.65617,10.42569 -32.65617,10.42569 -9.83131,2.7128 -21.24498,-4.07001 -23.95773,-13.90132 -2.7128,-9.83137 3.01799,-19.93002 12.84936,-22.64282 z"
           style="fill:#ef4b53;fill-opacity:1;stroke:none;stroke-width:2.67465353;stroke-linecap:round;stroke-miterlimit:4;stroke-dasharray:none;stroke-opacity:1" />
        <path
           style="fill:#ef4b53;fill-opacity:1;stroke:#faf1d7;stroke-width:2.67465353;stroke-linecap:round;stroke-miterlimit:4;stroke-dasharray:none;stroke-opacity:1"
           d="m 506.59317,242.80167 c 27.39547,0 46.41985,-9.30105 46.41985,-43.84992 0,-34.54887 -19.02438,-80.87526 -46.41985,-80.87526 -27.39548,0 -45.40971,41.27747 -45.40971,75.82635 0,34.54887 18.01423,48.89883 45.40971,48.89883 z"
           id="rect5893"
           inkscape:connector-curvature="0"
           sodipodi:nodetypes="sssss" />
        <circle
           style="fill:#4ab9d5;fill-opacity:1;stroke:none;stroke-width:2.67465353;stroke-linecap:round;stroke-miterlimit:4;stroke-dasharray:none;stroke-opacity:1"
           id="circle5909"
           cx="486.64099"
           cy="158.12465"
           r="6.3134537" />
        <circle
           r="6.3134537"
           cy="158.62973"
           cx="523.25903"
           id="circle5911"
           style="fill:#4ab9d5;fill-opacity:1;stroke:none;stroke-width:2.67465353;stroke-linecap:round;stroke-miterlimit:4;stroke-dasharray:none;stroke-opacity:1" />
        <path
           style="fill:#fec42b;fill-opacity:1;stroke:none;stroke-width:2.67465353;stroke-linecap:round;stroke-miterlimit:4;stroke-dasharray:none;stroke-opacity:1"
           d="m 490.22825,108.94576 c -1.44892,1.69411 -1.45921,4.42759 0.0996,5.52363 l 13.46819,9.46986 c 0,0 1.91579,1.76856 3.21556,0.24882 1.4489,-1.6941 -0.57511,-3.29644 -0.57511,-3.29644 l -10.87792,-12.53815 c -1.25757,-1.44951 -3.88141,-1.10183 -5.33031,0.59228 z"
           id="path5922"
           inkscape:connector-curvature="0"
           sodipodi:nodetypes="sscscss" />
        <path
           sodipodi:nodetypes="sscscss"
           inkscape:connector-curvature="0"
           id="path5933"
           d="m 500.44525,97.956656 c -2.56325,0.611116 -4.35098,3.223154 -3.49108,5.362334 l 7.42969,18.48277 c 0,0 0.78276,3.03297 3.08217,2.48475 2.56323,-0.6111 1.56321,-3.56042 1.56321,-3.56042 l -2.82147,-19.6133 c -0.32618,-2.267439 -3.19927,-3.767264 -5.76252,-3.156134 z"
           style="fill:#fec42b;fill-opacity:1;stroke:none;stroke-width:2.67465353;stroke-linecap:round;stroke-miterlimit:4;stroke-dasharray:none;stroke-opacity:1" />
        <path
           sodipodi:nodetypes="sasasss"
           inkscape:connector-curvature="0"
           id="path6057"
           d="m 493.02506,183.57978 c 0,0 25.72033,14.43284 23.75973,26.08332 -1.12614,6.69186 -15.42563,4.19509 -17.88235,10.18408 -2.66058,6.48596 -4.04368,14.28683 -9.97209,14.75934 -11.87705,0.94657 -23.75973,-26.08332 -23.75973,-26.08332 -6.87616,-7.54854 -6.20025,-19.18797 1.51544,-26.09731 7.71567,-6.90928 19.46284,-6.39465 26.339,1.15389 z"
           style="fill:#fec42b;fill-opacity:1;stroke:#faf1d7;stroke-width:2.67465353;stroke-linecap:round;stroke-miterlimit:4;stroke-dasharray:none;stroke-opacity:1" />
        <path
           style="fill:#ef4b53;fill-opacity:1;stroke:none;stroke-width:2.67465353;stroke-linecap:round;stroke-miterlimit:4;stroke-dasharray:none;stroke-opacity:1"
           d="m 491.38339,183.74465 c 0,0 24.09916,13.90911 22.34165,24.99379 -1.00954,6.36687 -14.37326,3.89868 -16.62925,9.5877 -2.44318,6.1611 -3.6949,13.47159 -9.21672,13.99543 -10.76097,1.02082 -22.67279,-23.4197 -22.67279,-23.4197 -6.46572,-7.23327 -5.57616,-19.88964 1.58316,-26.42212 7.15935,-6.53255 18.12819,-5.9684 24.59395,1.2649 z"
           id="path6059"
           inkscape:connector-curvature="0"
           sodipodi:nodetypes="sasasss" />
        <path
           style="fill:#c2b130;fill-opacity:1;stroke:none;stroke-width:2.67465353;stroke-linecap:round;stroke-miterlimit:4;stroke-dasharray:none;stroke-opacity:1"
           inkscape:transform-center-x="0.40128909"
           inkscape:transform-center-y="6.0398847"
           d="m 503.7886,201.93288 c -3.57234,-0.0351 -15.86055,-32.45813 -15.86055,-32.45813 l -0.44056,-1.04485 c -3.87463,-9.18897 37.04374,-8.41879 32.60223,0.5577 0,0 -12.23115,32.98521 -16.30112,32.94528 z"
           id="path5896"
           inkscape:connector-curvature="0"
           sodipodi:nodetypes="scsss" />
        <rect
           transform="matrix(0.86506613,0.50165784,-0.50165784,0.86506613,0,0)"
           style="fill:#895a4b;fill-opacity:1;stroke:none;stroke-width:2.67465353;stroke-linecap:round;stroke-miterlimit:4;stroke-dasharray:none;stroke-opacity:1"
           id="rect6075"
           width="2.5464544"
           height="13.750433"
           x="560.70355"
           y="-17.575577"
           ry="2.5463798" />
        <rect
           transform="matrix(0.93330921,-0.3590737,0.3590737,0.93330921,0,0)"
           ry="2.5463798"
           y="426.2247"
           x="364.73843"
           height="13.750433"
           width="2.5464544"
           id="rect6077"
           style="fill:#895a4b;fill-opacity:1;stroke:none;stroke-width:2.67465353;stroke-linecap:round;stroke-miterlimit:4;stroke-dasharray:none;stroke-opacity:1" />
      </g>
    </g>
  </g>
</svg>
