<?xml version="1.0" encoding="UTF-8" standalone="no"?>
<!-- Created with Inkscape (http://www.inkscape.org/) -->

<svg
   xmlns:dc="http://purl.org/dc/elements/1.1/"
   xmlns:cc="http://creativecommons.org/ns#"
   xmlns:rdf="http://www.w3.org/1999/02/22-rdf-syntax-ns#"
   xmlns:svg="http://www.w3.org/2000/svg"
   xmlns="http://www.w3.org/2000/svg"
   xmlns:sodipodi="http://sodipodi.sourceforge.net/DTD/sodipodi-0.dtd"
   xmlns:inkscape="http://www.inkscape.org/namespaces/inkscape"
   width="151.4102mm"
   height="196.59431mm"
   viewBox="0 0 536.49284 696.59402"
   id="svg13511"
   version="1.1"
   inkscape:version="0.91 r13725"
   sodipodi:docname="birdgreen.svg">
  <defs
     id="defs13513" />
  <sodipodi:namedview
     id="base"
     pagecolor="#ffffff"
     bordercolor="#666666"
     borderopacity="1.0"
     inkscape:pageopacity="0.0"
     inkscape:pageshadow="2"
     inkscape:zoom="0.35"
     inkscape:cx="-147.5262"
     inkscape:cy="231.15409"
     inkscape:document-units="px"
     inkscape:current-layer="layer1"
     showgrid="false"
     fit-margin-top="0"
     fit-margin-left="0"
     fit-margin-right="0"
     fit-margin-bottom="0"
     inkscape:window-width="1280"
     inkscape:window-height="751"
     inkscape:window-x="0"
     inkscape:window-y="1"
     inkscape:window-maximized="1" />
  <metadata
     id="metadata13516">
    <rdf:RDF>
      <cc:Work
         rdf:about="">
        <dc:format>image/svg+xml</dc:format>
        <dc:type
           rdf:resource="http://purl.org/dc/dcmitype/StillImage" />
        <dc:title></dc:title>
      </cc:Work>
    </rdf:RDF>
  </metadata>
  <g
     inkscape:label="Ebene 1"
     inkscape:groupmode="layer"
     id="layer1"
     transform="translate(-6.8119193,-66.922252)">
    <g
       transform="matrix(2.0695376,0,0,2.0695376,-4315.1046,3428.5443)"
       id="g13468">
      <rect
         style="fill:#895a4b;fill-opacity:1;stroke:none;stroke-width:0.40000001;stroke-linecap:round;stroke-miterlimit:4;stroke-dasharray:none;stroke-opacity:1"
         id="rect5961"
         width="2.5463798"
         height="34.12149"
         x="2197.4639"
         y="-1332.1429"
         ry="2.5463798" />
      <rect
         ry="2.5463798"
         y="-1332.9069"
         x="2162.324"
         height="34.12149"
         width="2.5463798"
         id="rect5951"
         style="fill:#895a4b;fill-opacity:1;stroke:none;stroke-width:0.40000001;stroke-linecap:round;stroke-miterlimit:4;stroke-dasharray:none;stroke-opacity:1" />
      <path
         style="fill:#2aae4a;fill-opacity:1;stroke:none;stroke-width:4;stroke-linecap:round;stroke-miterlimit:4;stroke-dasharray:none;stroke-opacity:1"
         d="m 2261.9353,-1483.731 c 0,0 47.3257,-31.9713 65.7846,-18.4553 10.6025,7.7634 -6.1431,30.3408 2.0869,39.7962 8.9129,10.24 21.2114,19.4117 16.878,30.082 -8.6817,21.377 -65.7846,18.4553 -65.7846,18.4553 -19.0382,5.3411 -38.5942,-5.942 -43.8475,-25.2983 -5.2532,-19.3562 5.8444,-39.2388 24.8826,-44.5799 z"
         id="path5942"
         inkscape:connector-curvature="0"
         sodipodi:nodetypes="sasasss" />
      <path
         sodipodi:nodetypes="sasasss"
         inkscape:connector-curvature="0"
         id="rect5939"
         d="m 2250.5276,-1480.9314 c 0,0 47.3256,-31.446 65.7845,-18.1522 10.6025,7.6359 -6.1431,29.8423 2.0869,39.1424 8.9129,10.0718 21.0017,19.0087 16.878,29.5878 -8.0364,20.6166 -63.2382,20.1892 -63.2382,20.1892 -19.0382,5.2533 -41.1406,-7.8815 -46.3938,-26.9197 -5.2533,-19.0383 5.8443,-38.5942 24.8826,-43.8475 z"
         style="fill:#c2b130;fill-opacity:1;stroke:none;stroke-width:4;stroke-linecap:round;stroke-miterlimit:4;stroke-dasharray:none;stroke-opacity:1" />
      <path
         style="fill:#c2b130;fill-opacity:1;stroke:#faf2d9;stroke-width:4;stroke-linecap:round;stroke-miterlimit:4;stroke-dasharray:none;stroke-opacity:1"
         d="m 2182.0439,-1326.6373 c 52.9913,0 89.7903,-18.1033 89.7903,-85.3481 0,-67.2448 -36.799,-157.413 -89.7903,-157.413 -52.9912,0 -87.8363,80.3412 -87.8363,147.586 0,67.2448 34.8451,95.1751 87.8363,95.1751 z"
         id="path5899"
         inkscape:connector-curvature="0"
         sodipodi:nodetypes="sssss" />
      <circle
         r="13.324162"
         cy="-1495.3751"
         cx="2144.8442"
         id="path5901"
         style="fill:#895a4b;fill-opacity:1;stroke:none;stroke-width:4;stroke-linecap:round;stroke-miterlimit:4;stroke-dasharray:none;stroke-opacity:1" />
      <circle
         style="fill:#895a4b;fill-opacity:1;stroke:none;stroke-width:4;stroke-linecap:round;stroke-miterlimit:4;stroke-dasharray:none;stroke-opacity:1"
         id="circle5913"
         cx="2217.5869"
         cy="-1496.8156"
         r="13.324162" />
      <path
         sodipodi:nodetypes="sscscss"
         inkscape:connector-curvature="0"
         id="path5935"
         d="m 2168.2715,-1623.9923 c -5.8316,1.5273 -9.8989,8.0549 -7.9425,13.4009 l 16.9032,46.1897 c 0,0 1.7809,7.5796 7.0122,6.2096 5.8316,-1.5272 3.5565,-8.8977 3.5565,-8.8977 l -6.4191,-49.0151 c -0.7421,-5.6665 -7.2787,-9.4146 -13.1103,-7.8874 z"
         style="fill:#2aae4a;fill-opacity:1;stroke:none;stroke-width:2.69625735;stroke-linecap:round;stroke-miterlimit:4;stroke-dasharray:none;stroke-opacity:1" />
      <path
         style="fill:#2aae4a;fill-opacity:1;stroke:none;stroke-width:2.69625735;stroke-linecap:round;stroke-miterlimit:4;stroke-dasharray:none;stroke-opacity:1"
         d="m 2145.1343,-1594.1334 c -3.2808,3.9178 -3.3041,10.2392 0.2256,12.7739 l 30.496,21.9001 c 0,0 4.3379,4.09 7.281,0.5754 3.2808,-3.9178 -1.3022,-7.6234 -1.3022,-7.6234 l -24.6309,-28.9957 c -2.8475,-3.3522 -8.7887,-2.5481 -12.0694,1.3697 z"
         id="path5937"
         inkscape:connector-curvature="0"
         sodipodi:nodetypes="sscscss" />
      <path
         sodipodi:nodetypes="sasasss"
         inkscape:connector-curvature="0"
         id="path5944"
         d="m 2154.3562,-1444.2199 c 0,0 51.8472,33.219 47.4356,57.732 -2.4038,13.3565 -30.1437,8.0272 -35.1922,20.4716 -5.4674,13.477 -9.7291,24.4232 -20.4076,24.7091 -23.6968,0.6345 -48.1559,-52.3303 -48.1559,-52.3303 -9.0372,-14.3861 -11.5046,-39.1377 3.7969,-53.2487 15.3013,-14.1111 38.0843,-10.6395 52.5232,2.6663 z"
         style="fill:#2aae4a;fill-opacity:1;stroke:#faf2d9;stroke-width:4;stroke-linecap:round;stroke-miterlimit:4;stroke-dasharray:none;stroke-opacity:1" />
      <path
         style="fill:#c2b130;fill-opacity:1;stroke:none;stroke-width:0.40000001;stroke-linecap:round;stroke-miterlimit:4;stroke-dasharray:none;stroke-opacity:1"
         d="m 2154.0471,-1443.1916 c 0,0 50.1052,29.4546 45.8458,51.896 -2.4465,12.89 -30.4938,7.2158 -35.534,18.6668 -5.4584,12.4013 -8.6027,27.0379 -20.1289,27.9898 -22.4191,1.8516 -47.717,-47.2679 -47.717,-47.2679 -13.2679,-15.0189 -9.6652,-42.1423 5.7535,-55.0662 15.4186,-12.9239 38.5127,-11.2374 51.7806,3.7815 z"
         id="path5946"
         inkscape:connector-curvature="0"
         sodipodi:nodetypes="sasasss" />
      <path
         style="fill:#eb7400;fill-opacity:1;stroke:none;stroke-width:4;stroke-linecap:round;stroke-miterlimit:4;stroke-dasharray:none;stroke-opacity:1"
         inkscape:transform-center-x="0.32192348"
         inkscape:transform-center-y="3.5259849"
         d="m 2181.8867,-1419.7719 c -8.1732,-0.058 -36.2873,-54.0401 -36.2873,-54.0401 l -1.008,-1.7396 c -8.8647,-15.2989 84.7523,-14.0166 74.5906,0.9285 0,0 -27.9836,54.9177 -37.2953,54.8512 z"
         id="path5907"
         inkscape:connector-curvature="0"
         sodipodi:nodetypes="scsss" />
      <rect
         transform="matrix(0.86506613,0.50165784,-0.50165784,0.86506613,0,0)"
         style="fill:#895a4b;fill-opacity:1;stroke:none;stroke-width:0.40000001;stroke-linecap:round;stroke-miterlimit:4;stroke-dasharray:none;stroke-opacity:1"
         id="rect5957"
         width="2.5464544"
         height="13.750433"
         x="1217.8242"
         y="-2210.9414"
         ry="2.5463798" />
      <rect
         transform="matrix(0.93330921,-0.3590737,0.3590737,0.93330921,0,0)"
         ry="2.5463798"
         y="-437.76498"
         x="2485.1589"
         height="13.750433"
         width="2.5464544"
         id="rect5959"
         style="fill:#895a4b;fill-opacity:1;stroke:none;stroke-width:0.40000001;stroke-linecap:round;stroke-miterlimit:4;stroke-dasharray:none;stroke-opacity:1" />
      <rect
         ry="2.5463798"
         y="-2227.9087"
         x="1248.6058"
         height="13.750433"
         width="2.5464544"
         id="rect5963"
         style="fill:#895a4b;fill-opacity:1;stroke:none;stroke-width:0.40000001;stroke-linecap:round;stroke-miterlimit:4;stroke-dasharray:none;stroke-opacity:1"
         transform="matrix(0.86506613,0.50165784,-0.50165784,0.86506613,0,0)" />
      <rect
         style="fill:#895a4b;fill-opacity:1;stroke:none;stroke-width:0.40000001;stroke-linecap:round;stroke-miterlimit:4;stroke-dasharray:none;stroke-opacity:1"
         id="rect5965"
         width="2.5464544"
         height="13.750433"
         x="2517.6812"
         y="-424.43417"
         ry="2.5463798"
         transform="matrix(0.93330921,-0.3590737,0.3590737,0.93330921,0,0)" />
    </g>
  </g>
</svg>
