<?xml version="1.0" encoding="UTF-8" standalone="no"?>
<!-- Created with Inkscape (http://www.inkscape.org/) -->

<svg
   xmlns:dc="http://purl.org/dc/elements/1.1/"
   xmlns:cc="http://creativecommons.org/ns#"
   xmlns:rdf="http://www.w3.org/1999/02/22-rdf-syntax-ns#"
   xmlns:svg="http://www.w3.org/2000/svg"
   xmlns="http://www.w3.org/2000/svg"
   xmlns:sodipodi="http://sodipodi.sourceforge.net/DTD/sodipodi-0.dtd"
   xmlns:inkscape="http://www.inkscape.org/namespaces/inkscape"
   width="141.10316mm"
   height="266.31619mm"
   viewBox="0 0 499.97184 943.64005"
   id="svg11393"
   version="1.1"
   inkscape:version="0.91 r13725"
   sodipodi:docname="fourfloures.svg">
  <defs
     id="defs11395" />
  <sodipodi:namedview
     id="base"
     pagecolor="#ffffff"
     bordercolor="#666666"
     borderopacity="1.0"
     inkscape:pageopacity="0.0"
     inkscape:pageshadow="2"
     inkscape:zoom="0.35"
     inkscape:cx="-170.72841"
     inkscape:cy="371.82001"
     inkscape:document-units="px"
     inkscape:current-layer="layer1"
     showgrid="false"
     fit-margin-top="0"
     fit-margin-left="0"
     fit-margin-right="0"
     fit-margin-bottom="0"
     inkscape:window-width="1280"
     inkscape:window-height="751"
     inkscape:window-x="0"
     inkscape:window-y="1"
     inkscape:window-maximized="1" />
  <metadata
     id="metadata11398">
    <rdf:RDF>
      <cc:Work
         rdf:about="">
        <dc:format>image/svg+xml</dc:format>
        <dc:type
           rdf:resource="http://purl.org/dc/dcmitype/StillImage" />
        <dc:title></dc:title>
      </cc:Work>
    </rdf:RDF>
  </metadata>
  <g
     inkscape:label="Ebene 1"
     inkscape:groupmode="layer"
     id="layer1"
     transform="translate(-30.01412,39.45788)">
    <g
       id="g9552"
       transform="translate(-3239.4809,-1298.1563)">
      <g
         transform="matrix(0.36183616,0,0,0.36183616,3153.7927,1747.6446)"
         id="g9548">
        <path
           sodipodi:nodetypes="sssssssssss"
           inkscape:connector-curvature="0"
           id="path9346"
           d="m 1279.0367,1123.8377 c -13.0719,25.007 101.4276,57.4884 -2.6418,117.3711 -98.2098,56.5109 -77.7288,-74.7175 -105.5514,-79.422 -27.8225,-4.7045 -33.801,158.7243 -123.2985,66.6743 -97.73001,-100.5173 48.8866,-96.4539 44.7632,-124.3685 -4.1234,-27.9145 -126.91641,21.04 -79.2144,-91.2835 56.5794,-133.2271 94.4296,2.6467 119.7037,-9.901 25.2741,-12.54765 -18.1516,-102.33602 79.0252,-89.83543 137.1448,17.64199 24.631,78.18806 44.3747,98.34773 19.7437,20.1596 79.5065,-80.99306 114.701,37.0735 37.0795,124.3901 -78.7899,50.3368 -91.8617,75.3438 z"
           inkscape:transform-center-y="12.811245"
           inkscape:transform-center-x="14.616596"
           style="fill:#e25a00;fill-opacity:1;stroke:none;stroke-width:30;stroke-linecap:round;stroke-miterlimit:4;stroke-dasharray:none;stroke-opacity:1" />
        <ellipse
           style="fill:#2aae4a;fill-opacity:1;stroke:none;stroke-width:30;stroke-linecap:round;stroke-miterlimit:4;stroke-dasharray:none;stroke-opacity:1"
           id="ellipse9348"
           cx="1173.7114"
           cy="1074.1608"
           rx="68.571426"
           ry="51.42857" />
      </g>
      <g
         transform="matrix(0.3839479,0,0,0.3839479,2809.3581,1535.3422)"
         id="g9374">
        <path
           sodipodi:nodetypes="sssssssssss"
           inkscape:connector-curvature="0"
           id="path9370"
           d="m 1812.3972,-508.56883 c -13.0718,25.00702 101.4276,57.48846 -2.6418,117.37111 -98.2097,56.51094 -77.7288,-74.71754 -105.5513,-79.42202 -27.8225,-4.70447 -33.8011,158.72437 -123.2986,66.67433 -97.73,-100.51727 48.8866,-96.45392 44.7632,-124.36847 -4.1234,-27.91454 -126.9164,21.03998 -79.2144,-91.28351 56.5795,-133.22713 94.4296,2.64665 119.7038,-9.90101 25.2741,-12.54767 -18.1517,-102.33604 79.0251,-89.83545 137.1448,17.64199 24.6311,78.18806 44.3747,98.34772 19.7437,20.15966 79.5065,-80.99305 114.7011,37.07353 37.0795,124.39008 -78.7899,50.33675 -91.8618,75.34377 z"
           inkscape:transform-center-y="12.811245"
           inkscape:transform-center-x="14.616596"
           style="fill:#2aae4a;fill-opacity:1;stroke:none;stroke-width:30;stroke-linecap:round;stroke-miterlimit:4;stroke-dasharray:none;stroke-opacity:1" />
        <ellipse
           ry="51.42857"
           rx="68.571426"
           cy="-539.05792"
           cx="1717.0648"
           id="ellipse9372"
           style="fill:#ef4b53;fill-opacity:1;stroke:none;stroke-width:30;stroke-linecap:round;stroke-miterlimit:4;stroke-dasharray:none;stroke-opacity:1" />
      </g>
      <g
         transform="matrix(0.51377998,0,0,0.46959043,3653.0393,1796.4081)"
         id="g9382">
        <path
           sodipodi:nodetypes="sssssssssss"
           inkscape:connector-curvature="0"
           id="path9378"
           d="m 127.46276,-387.35052 c -13.07185,25.00702 101.4276,57.48846 -2.64179,117.37111 -98.209748,56.51094 -77.728818,-74.71754 -105.551338,-79.42202 -27.8225104,-4.70447 -33.80103,158.72437 -123.298572,66.67433 -97.72997,-100.51727 48.886642,-96.45392 44.763232,-124.36847 -4.12341,-27.91454 -126.916402,21.03998 -79.214402,-91.28351 56.579422,-133.22713 94.429612,2.64665 119.703722,-9.90101 25.2740996,-12.54767 -18.15163,-102.33604 79.02516,-89.83545 137.144798,17.64199 24.63106,78.18806 44.374718,98.34772 19.74367,20.15966 79.50651,-80.99305 114.70104,37.07353 37.07951,124.39008 -78.78992,50.33675 -91.86177,75.34377 z"
           inkscape:transform-center-y="12.811245"
           inkscape:transform-center-x="14.616596"
           style="fill:#efc043;fill-opacity:1;stroke:none;stroke-width:30;stroke-linecap:round;stroke-miterlimit:4;stroke-dasharray:none;stroke-opacity:1" />
        <ellipse
           ry="51.42857"
           rx="68.571426"
           cy="-429.96146"
           cx="28.08972"
           id="ellipse9380"
           style="fill:#ef4b53;fill-opacity:1;stroke:none;stroke-width:30;stroke-linecap:round;stroke-miterlimit:4;stroke-dasharray:none;stroke-opacity:1" />
      </g>
      <g
         transform="matrix(0.66572374,0,0,0.66572374,3702.5516,1490.4785)"
         id="g9404">
        <path
           sodipodi:nodetypes="sssssssssss"
           inkscape:connector-curvature="0"
           id="path9400"
           d="m -373.5729,533.9086 c -13.07185,25.00702 101.4276,57.48846 -2.64179,117.37111 -98.20975,56.51094 -77.72882,-74.71754 -105.55134,-79.42202 -27.82251,-4.70447 -33.80103,158.72437 -123.29857,66.67433 -97.72997,-100.51727 48.88664,-96.45392 44.76323,-124.36847 -4.12341,-27.91454 -126.9164,21.03998 -79.2144,-91.28351 56.57942,-133.22713 94.42961,2.64665 119.70372,-9.90101 25.2741,-12.54767 -18.15163,-102.33604 79.02516,-89.83545 137.1448,17.64199 24.63106,78.18806 44.37472,98.34772 19.74367,20.15966 79.50651,-80.99305 114.70104,37.07353 37.07951,124.39008 -78.78992,50.33675 -91.86177,75.34377 z"
           inkscape:transform-center-y="12.811245"
           inkscape:transform-center-x="14.616596"
           style="fill:#895a4b;fill-opacity:1;stroke:none;stroke-width:30;stroke-linecap:round;stroke-miterlimit:4;stroke-dasharray:none;stroke-opacity:1" />
        <ellipse
           style="fill:#efc043;fill-opacity:1;stroke:none;stroke-width:30;stroke-linecap:round;stroke-miterlimit:4;stroke-dasharray:none;stroke-opacity:1"
           id="ellipse9402"
           cx="-475.55084"
           cy="488.27228"
           rx="68.571426"
           ry="51.42857" />
      </g>
    </g>
  </g>
</svg>
