<?xml version="1.0" encoding="UTF-8" standalone="no"?>
<!-- Created with Inkscape (http://www.inkscape.org/) -->

<svg
   xmlns:dc="http://purl.org/dc/elements/1.1/"
   xmlns:cc="http://creativecommons.org/ns#"
   xmlns:rdf="http://www.w3.org/1999/02/22-rdf-syntax-ns#"
   xmlns:svg="http://www.w3.org/2000/svg"
   xmlns="http://www.w3.org/2000/svg"
   xmlns:sodipodi="http://sodipodi.sourceforge.net/DTD/sodipodi-0.dtd"
   xmlns:inkscape="http://www.inkscape.org/namespaces/inkscape"
   width="132.70355mm"
   height="122.14746mm"
   viewBox="0 0 470.20944 432.80596"
   id="svg10172"
   version="1.1"
   inkscape:version="0.91 r13725"
   sodipodi:docname="threefloures1.svg">
  <defs
     id="defs10174" />
  <sodipodi:namedview
     id="base"
     pagecolor="#ffffff"
     bordercolor="#666666"
     borderopacity="1.0"
     inkscape:pageopacity="0.0"
     inkscape:pageshadow="2"
     inkscape:zoom="0.35"
     inkscape:cx="-141.09471"
     inkscape:cy="102.11725"
     inkscape:document-units="px"
     inkscape:current-layer="layer1"
     showgrid="false"
     fit-margin-top="0"
     fit-margin-left="0"
     fit-margin-right="0"
     fit-margin-bottom="0"
     inkscape:window-width="1280"
     inkscape:window-height="751"
     inkscape:window-x="0"
     inkscape:window-y="1"
     inkscape:window-maximized="1" />
  <metadata
     id="metadata10177">
    <rdf:RDF>
      <cc:Work
         rdf:about="">
        <dc:format>image/svg+xml</dc:format>
        <dc:type
           rdf:resource="http://purl.org/dc/dcmitype/StillImage" />
        <dc:title></dc:title>
      </cc:Work>
    </rdf:RDF>
  </metadata>
  <g
     inkscape:label="Ebene 1"
     inkscape:groupmode="layer"
     id="layer1"
     transform="translate(-0.38042424,-201.6735)">
    <g
       id="g9526"
       transform="matrix(1.1259794,0,0,1.1259794,-2775.3443,830.11465)">
      <g
         transform="matrix(-0.6179387,0,0,0.6179387,3499.3848,-585.88592)"
         id="g9312">
        <path
           sodipodi:nodetypes="sssssssssss"
           inkscape:connector-curvature="0"
           id="path9296"
           d="m 1623.4748,461.58066 c -6.6168,12.65812 51.3409,29.09966 -1.3373,59.41123 -49.7121,28.60486 -39.345,-37.82073 -53.4283,-40.20206 -14.0832,-2.38132 -17.1094,80.34354 -62.4115,33.7494 -49.4693,-50.88011 24.7455,-48.82331 22.6583,-62.95318 -2.0872,-14.12986 -64.2429,10.65008 -40.0969,-46.20613 28.6395,-67.43728 47.7986,1.33968 60.5919,-5.01172 12.7933,-6.35142 -9.188,-51.80074 40.0012,-45.47316 69.4203,8.93007 12.4678,39.57745 22.4617,49.78192 9.9939,10.20447 40.2448,-40.99728 58.0597,18.76598 18.769,62.96411 -39.8821,25.47959 -46.4988,38.13772 z"
           inkscape:transform-center-y="6.4848328"
           inkscape:transform-center-x="7.3986497"
           style="fill:#eb7400;fill-opacity:1;stroke:none;stroke-width:30;stroke-linecap:round;stroke-miterlimit:4;stroke-dasharray:none;stroke-opacity:1" />
        <ellipse
           ry="26.032255"
           rx="34.709671"
           cy="434.30463"
           cx="1574.187"
           id="ellipse9298"
           style="fill:#895a4b;fill-opacity:1;stroke:none;stroke-width:30;stroke-linecap:round;stroke-miterlimit:4;stroke-dasharray:none;stroke-opacity:1" />
      </g>
      <g
         transform="translate(1476.843,-1349.5638)"
         id="g9308">
        <path
           sodipodi:nodetypes="sssssssssss"
           inkscape:connector-curvature="0"
           id="path9300"
           d="m 1254.5593,905.02049 c -7.0051,13.40104 54.3542,30.80755 -1.4158,62.89819 -52.6297,30.28372 -41.6542,-40.04054 -56.564,-42.56158 -14.9099,-2.52111 -18.1137,85.059 -66.0747,35.73019 -52.3726,-53.86637 26.198,-51.68883 23.9883,-66.64802 -2.2098,-14.95917 -68.0135,11.27515 -42.4504,-48.91807 30.3205,-71.3953 50.6041,1.41832 64.1482,-5.30587 13.5442,-6.72419 -9.7273,-54.84102 42.3489,-48.14206 73.4948,9.45419 13.1996,41.90032 23.7801,52.70372 10.5804,10.80339 42.6069,-43.4035 61.4673,19.86739 19.8706,66.65961 -42.2228,26.97504 -49.2279,40.37611 z"
           inkscape:transform-center-y="6.8654356"
           inkscape:transform-center-x="7.8329341"
           style="fill:#72a08d;fill-opacity:1;stroke:none;stroke-width:30;stroke-linecap:round;stroke-miterlimit:4;stroke-dasharray:none;stroke-opacity:1" />
        <ellipse
           ry="27.560139"
           rx="36.746853"
           cy="876.14355"
           cx="1202.3787"
           id="ellipse9302"
           style="fill:#efc043;fill-opacity:1;stroke:none;stroke-width:30;stroke-linecap:round;stroke-miterlimit:4;stroke-dasharray:none;stroke-opacity:1" />
      </g>
      <g
         transform="matrix(0.40225418,0,0,0.40225418,1983.8103,-203.00285)"
         id="g9522">
        <path
           sodipodi:nodetypes="sssssssssss"
           inkscape:connector-curvature="0"
           id="path9518"
           d="m 2135.646,-60.061095 c -13.0718,25.00702 101.4276,57.4884598 -2.6418,117.37111 -98.2097,56.510935 -77.7288,-74.71754 -105.5513,-79.42202 -27.8225,-4.70447 -33.801,158.724365 -123.2986,66.67433 -97.7299,-100.51727 48.8867,-96.45392 44.7633,-124.36847 -4.1235,-27.914545 -126.9164,21.03998 -79.2144,-91.283515 56.5794,-133.22713 94.4296,2.64665 119.7037,-9.90101 25.2741,-12.54767 -18.1517,-102.33604 79.0251,-89.83545 137.1448,17.64199 24.6311,78.18806 44.3748,98.34772 19.7436,20.15966 79.5065,-80.99305 114.701,37.07353 37.0795,124.390085 -78.7899,50.336755 -91.8618,75.343775 z"
           inkscape:transform-center-y="12.811245"
           inkscape:transform-center-x="14.616596"
           style="fill:#ef4b53;fill-opacity:1;stroke:none;stroke-width:30;stroke-linecap:round;stroke-miterlimit:4;stroke-dasharray:none;stroke-opacity:1" />
        <ellipse
           style="fill:#efc043;fill-opacity:1;stroke:none;stroke-width:30;stroke-linecap:round;stroke-miterlimit:4;stroke-dasharray:none;stroke-opacity:1"
           id="ellipse9520"
           cx="2033.6681"
           cy="-105.69743"
           rx="68.571426"
           ry="51.42857" />
      </g>
    </g>
  </g>
</svg>
