<?xml version="1.0" encoding="UTF-8" standalone="no"?>
<!-- Created with Inkscape (http://www.inkscape.org/) -->

<svg
   xmlns:dc="http://purl.org/dc/elements/1.1/"
   xmlns:cc="http://creativecommons.org/ns#"
   xmlns:rdf="http://www.w3.org/1999/02/22-rdf-syntax-ns#"
   xmlns:svg="http://www.w3.org/2000/svg"
   xmlns="http://www.w3.org/2000/svg"
   xmlns:sodipodi="http://sodipodi.sourceforge.net/DTD/sodipodi-0.dtd"
   xmlns:inkscape="http://www.inkscape.org/namespaces/inkscape"
   width="1000"
   height="600"
   viewBox="0 0 999.9999 600.00001"
   id="svg9577"
   version="1.1"
   inkscape:version="0.91 r13725"
   sodipodi:docname="cloud.svg"
   inkscape:export-filename="/Users/quaqua/devel/clients/strawberriesanddots/images/site/cloud.png"
   inkscape:export-xdpi="90"
   inkscape:export-ydpi="90">
  <defs
     id="defs9579" />
  <sodipodi:namedview
     id="base"
     pagecolor="#ffffff"
     bordercolor="#666666"
     borderopacity="1.0"
     inkscape:pageopacity="0.0"
     inkscape:pageshadow="2"
     inkscape:zoom="0.35"
     inkscape:cx="258.08883"
     inkscape:cy="52.110812"
     inkscape:document-units="px"
     inkscape:current-layer="layer1"
     showgrid="false"
     fit-margin-top="0"
     fit-margin-left="0"
     fit-margin-right="0"
     fit-margin-bottom="0"
     units="px"
     inkscape:window-width="1440"
     inkscape:window-height="851"
     inkscape:window-x="0"
     inkscape:window-y="1"
     inkscape:window-maximized="1" />
  <metadata
     id="metadata9582">
    <rdf:RDF>
      <cc:Work
         rdf:about="">
        <dc:format>image/svg+xml</dc:format>
        <dc:type
           rdf:resource="http://purl.org/dc/dcmitype/StillImage" />
        <dc:title></dc:title>
      </cc:Work>
    </rdf:RDF>
  </metadata>
  <g
     inkscape:label="Ebene 1"
     inkscape:groupmode="layer"
     id="layer1"
     transform="translate(177.37455,68.44096)">
    <path
       style="fill:#fbf3da;fill-opacity:1;stroke:none"
       d="m -177.37461,-68.44096 0,600 1000,0 0,-600 -1000,0 z m 492.54687,17.76571 A 220.51109,185.03541 0 0 1 533.52417,110.17895 332.92852,204.77251 0 0 1 812.40198,311.99288 332.92852,204.77251 0 0 1 479.47355,516.76648 332.92852,204.77251 0 0 1 204.40304,427.00015 220.51109,204.77251 0 0 1 60.069507,477.29137 220.51109,204.77251 0 0 1 -160.44084,272.51972 220.51109,204.77251 0 0 1 60.069507,67.748057 220.51109,204.77251 0 0 1 107.54434,72.696883 220.51109,185.03541 0 0 1 315.17226,-50.67525 Z"
       id="rect3493"
       inkscape:connector-curvature="0" />
  </g>
</svg>
