<?xml version="1.0" encoding="UTF-8" standalone="no"?>
<!-- Created with Inkscape (http://www.inkscape.org/) -->

<svg
   xmlns:dc="http://purl.org/dc/elements/1.1/"
   xmlns:cc="http://creativecommons.org/ns#"
   xmlns:rdf="http://www.w3.org/1999/02/22-rdf-syntax-ns#"
   xmlns:svg="http://www.w3.org/2000/svg"
   xmlns="http://www.w3.org/2000/svg"
   xmlns:sodipodi="http://sodipodi.sourceforge.net/DTD/sodipodi-0.dtd"
   xmlns:inkscape="http://www.inkscape.org/namespaces/inkscape"
   width="977.4259"
   height="574.83118"
   viewBox="0 0 977.42581 574.83119"
   id="svg9577"
   version="1.1"
   inkscape:version="0.91 r13725"
   sodipodi:docname="cloud-filled.svg"
   inkscape:export-filename="/Users/quaqua/devel/clients/strawberriesanddots/images/site/cloud.png"
   inkscape:export-xdpi="90"
   inkscape:export-ydpi="90">
  <defs
     id="defs9579" />
  <sodipodi:namedview
     id="base"
     pagecolor="#ffffff"
     bordercolor="#666666"
     borderopacity="1.0"
     inkscape:pageopacity="0.0"
     inkscape:pageshadow="2"
     inkscape:zoom="0.89712419"
     inkscape:cx="513.78211"
     inkscape:cy="286.52481"
     inkscape:document-units="px"
     inkscape:current-layer="layer1"
     showgrid="false"
     fit-margin-top="0"
     fit-margin-left="0"
     fit-margin-right="0"
     fit-margin-bottom="0"
     units="px"
     inkscape:window-width="1440"
     inkscape:window-height="851"
     inkscape:window-x="0"
     inkscape:window-y="1"
     inkscape:window-maximized="1" />
  <metadata
     id="metadata9582">
    <rdf:RDF>
      <cc:Work
         rdf:about="">
        <dc:format>image/svg+xml</dc:format>
        <dc:type
           rdf:resource="http://purl.org/dc/dcmitype/StillImage" />
        <dc:title></dc:title>
      </cc:Work>
    </rdf:RDF>
  </metadata>
  <g
     inkscape:label="Ebene 1"
     inkscape:groupmode="layer"
     id="layer1"
     transform="translate(192.96862,62.516882)">
    <path
       id="path9136"
       d="M 284.94006,-60.016881 A 220.41644,185.81462 0 0 0 77.402642,63.875553 220.41644,205.63484 0 0 0 29.947957,58.904426 220.41644,205.63484 0 0 0 -190.46868,264.53834 220.41644,205.63484 0 0 0 29.947957,470.17347 220.41644,205.63484 0 0 0 174.21833,419.67061 332.7856,205.63484 0 0 0 449.17166,509.81431 332.7856,205.63484 0 0 0 781.95723,304.17918 332.7856,205.63484 0 0 0 503.19965,101.51404 220.41644,185.81462 0 0 0 284.94006,-60.016881 Z"
       style="fill:#ffffff;fill-opacity:1;stroke:#000000;stroke-width:5;stroke-linecap:round;stroke-miterlimit:4;stroke-dasharray:none;stroke-opacity:1"
       inkscape:connector-curvature="0" />
  </g>
</svg>
