<?xml version="1.0" encoding="UTF-8" standalone="no"?>
<!-- Created with Inkscape (http://www.inkscape.org/) -->

<svg
   xmlns:dc="http://purl.org/dc/elements/1.1/"
   xmlns:cc="http://creativecommons.org/ns#"
   xmlns:rdf="http://www.w3.org/1999/02/22-rdf-syntax-ns#"
   xmlns:svg="http://www.w3.org/2000/svg"
   xmlns="http://www.w3.org/2000/svg"
   xmlns:sodipodi="http://sodipodi.sourceforge.net/DTD/sodipodi-0.dtd"
   xmlns:inkscape="http://www.inkscape.org/namespaces/inkscape"
   width="180.66449mm"
   height="123.6463mm"
   viewBox="0 0 640.14977 438.11681"
   id="svg14893"
   version="1.1"
   inkscape:version="0.91 r13725"
   sodipodi:docname="strawberries1.svg">
  <defs
     id="defs14895" />
  <sodipodi:namedview
     id="base"
     pagecolor="#ffffff"
     bordercolor="#666666"
     borderopacity="1.0"
     inkscape:pageopacity="0.0"
     inkscape:pageshadow="2"
     inkscape:zoom="0.35"
     inkscape:cx="-143.49656"
     inkscape:cy="27.07262"
     inkscape:document-units="px"
     inkscape:current-layer="layer1"
     showgrid="false"
     fit-margin-top="0"
     fit-margin-left="0"
     fit-margin-right="0"
     fit-margin-bottom="0"
     inkscape:window-width="1280"
     inkscape:window-height="751"
     inkscape:window-x="0"
     inkscape:window-y="1"
     inkscape:window-maximized="1" />
  <metadata
     id="metadata14898">
    <rdf:RDF>
      <cc:Work
         rdf:about="">
        <dc:format>image/svg+xml</dc:format>
        <dc:type
           rdf:resource="http://purl.org/dc/dcmitype/StillImage" />
        <dc:title></dc:title>
      </cc:Work>
    </rdf:RDF>
  </metadata>
  <g
     inkscape:label="Ebene 1"
     inkscape:groupmode="layer"
     id="layer1"
     transform="translate(-2.7822766,-121.31802)">
    <g
       id="g12797"
       transform="matrix(2.5445346,0,0,2.5445346,-5362.5092,-1278.9488)">
      <g
         id="g12752"
         transform="matrix(0.35766592,-0.13975339,0.13975339,0.35766592,1528.8285,414.57768)">
        <path
           sodipodi:nodetypes="sssss"
           inkscape:connector-curvature="0"
           id="path12754"
           d="m 1565.7142,1132.3622 c 0,93.0994 -79.9491,205.7142 -178.5714,205.7143 -98.6223,-10e-5 -178.5714,-112.6149 -178.5714,-205.7143 0,-93.0994 79.9491,-122.8571 178.5714,-122.8572 98.6223,10e-5 178.5714,29.7578 178.5714,122.8572 z"
           style="fill:#ef4b53;fill-opacity:1;stroke:none;stroke-width:30;stroke-linecap:round;stroke-miterlimit:4;stroke-dasharray:none;stroke-opacity:1" />
        <path
           transform="matrix(1,0,0,0.42024329,-408.57143,751.63514)"
           inkscape:transform-center-y="-0.83440739"
           inkscape:transform-center-x="13.987015"
           d="m 1937.1428,743.79076 c -10.5143,13.35603 -98.8631,-42.91249 -115.2199,-38.2874 -16.3567,4.62509 -62.1581,98.8264 -78.1095,92.95393 -15.9515,-5.87247 10.2618,-107.28509 0.8086,-121.41203 -9.4533,-14.12695 -113.1975,-28.57687 -112.5417,-45.56227 0.6558,-16.98541 105.2053,-23.39335 115.7196,-36.74937 10.5143,-13.35602 -7.8017,-116.48787 8.555,-121.11296 16.3568,-4.62509 54.7586,92.82721 70.7101,98.69968 15.9514,5.87247 108.3757,-43.4166 117.8289,-29.28966 9.4532,14.12695 -71.3626,80.76372 -72.0184,97.74913 -0.6558,16.9854 74.7816,89.65493 64.2673,103.01095 z"
           inkscape:randomized="0"
           inkscape:rounded="0.14"
           inkscape:flatsided="false"
           sodipodi:arg2="1.2952267"
           sodipodi:arg1="0.6669082"
           sodipodi:r2="70.070625"
           sodipodi:r1="170.90396"
           sodipodi:cy="638.07648"
           sodipodi:cx="1802.8571"
           sodipodi:sides="5"
           id="path12756"
           style="fill:#2aae4a;fill-opacity:1;stroke:none;stroke-width:30;stroke-linecap:round;stroke-miterlimit:4;stroke-dasharray:none;stroke-opacity:1"
           sodipodi:type="star" />
        <circle
           r="15.714284"
           cy="1105.2194"
           cx="1284.2858"
           id="circle12758"
           style="fill:#895a4b;fill-opacity:1;stroke:none;stroke-width:30;stroke-linecap:round;stroke-miterlimit:4;stroke-dasharray:none;stroke-opacity:1" />
        <circle
           style="fill:#895a4b;fill-opacity:1;stroke:none;stroke-width:30;stroke-linecap:round;stroke-miterlimit:4;stroke-dasharray:none;stroke-opacity:1"
           id="circle12760"
           cx="1521.4286"
           cy="1159.5051"
           r="15.714284" />
        <circle
           r="15.714284"
           cy="1282.3622"
           cx="1467.1429"
           id="circle12762"
           style="fill:#895a4b;fill-opacity:1;stroke:none;stroke-width:30;stroke-linecap:round;stroke-miterlimit:4;stroke-dasharray:none;stroke-opacity:1" />
        <circle
           style="fill:#895a4b;fill-opacity:1;stroke:none;stroke-width:30;stroke-linecap:round;stroke-miterlimit:4;stroke-dasharray:none;stroke-opacity:1"
           id="circle12764"
           cx="1321.4286"
           cy="1265.2194"
           r="15.714284" />
        <circle
           r="15.714284"
           cy="1173.7908"
           cx="1370"
           id="circle12766"
           style="fill:#895a4b;fill-opacity:1;stroke:none;stroke-width:30;stroke-linecap:round;stroke-miterlimit:4;stroke-dasharray:none;stroke-opacity:1" />
        <circle
           style="fill:#895a4b;fill-opacity:1;stroke:none;stroke-width:30;stroke-linecap:round;stroke-miterlimit:4;stroke-dasharray:none;stroke-opacity:1"
           id="circle12768"
           cx="1432.8572"
           cy="1090.9336"
           r="15.714284" />
      </g>
      <path
         sodipodi:nodetypes="sssss"
         inkscape:connector-curvature="0"
         id="path12772"
         d="m 2221.606,617.94378 c -13.0109,33.29848 -0.1542,84.75012 35.1197,98.53295 35.2738,13.78277 79.6072,-15.32255 92.6181,-48.62103 13.011,-33.29848 -11.4253,-55.11496 -46.6992,-68.89779 -35.2738,-13.78277 -68.0276,-14.31261 -81.0386,18.98587 z"
         style="fill:#ef4b53;fill-opacity:1;stroke:#faf1d7;stroke-width:5;stroke-linecap:round;stroke-miterlimit:4;stroke-dasharray:none;stroke-opacity:1" />
      <path
         transform="matrix(-0.35766592,-0.13975339,-0.05873042,0.1503067,2980.9486,757.6838)"
         inkscape:transform-center-y="-0.83440739"
         inkscape:transform-center-x="13.987015"
         d="m 1937.1428,743.79076 c -10.5143,13.35603 -98.8631,-42.91249 -115.2199,-38.2874 -16.3567,4.62509 -62.1581,98.8264 -78.1095,92.95393 -15.9515,-5.87247 10.2618,-107.28509 0.8086,-121.41203 -9.4533,-14.12695 -113.1975,-28.57687 -112.5417,-45.56227 0.6558,-16.98541 105.2053,-23.39335 115.7196,-36.74937 10.5143,-13.35602 -7.8017,-116.48787 8.555,-121.11296 16.3568,-4.62509 54.7586,92.82721 70.7101,98.69968 15.9514,5.87247 108.3757,-43.4166 117.8289,-29.28966 9.4532,14.12695 -71.3626,80.76372 -72.0184,97.74913 -0.6558,16.9854 74.7816,89.65493 64.2673,103.01095 z"
         inkscape:randomized="0"
         inkscape:rounded="0.14"
         inkscape:flatsided="false"
         sodipodi:arg2="1.2952267"
         sodipodi:arg1="0.6669082"
         sodipodi:r2="70.070625"
         sodipodi:r1="170.90396"
         sodipodi:cy="638.07648"
         sodipodi:cx="1802.8571"
         sodipodi:sides="5"
         id="path12774"
         style="fill:#2aae4a;fill-opacity:1;stroke:none;stroke-width:30;stroke-linecap:round;stroke-miterlimit:4;stroke-dasharray:none;stroke-opacity:1"
         sodipodi:type="star" />
      <circle
         transform="matrix(-0.93142192,-0.36394122,-0.36394122,0.93142192,0,0)"
         r="6.0342836"
         cy="-243.39047"
         cx="-2402.2163"
         id="circle12776"
         style="fill:#895a4b;fill-opacity:1;stroke:none;stroke-width:30;stroke-linecap:round;stroke-miterlimit:4;stroke-dasharray:none;stroke-opacity:1" />
      <circle
         transform="matrix(-0.93142192,-0.36394122,-0.36394122,0.93142192,0,0)"
         style="fill:#895a4b;fill-opacity:1;stroke:none;stroke-width:30;stroke-linecap:round;stroke-miterlimit:4;stroke-dasharray:none;stroke-opacity:1"
         id="circle12778"
         cx="-2311.1536"
         cy="-222.54477"
         r="6.0342836" />
      <circle
         transform="matrix(-0.93142192,-0.36394122,-0.36394122,0.93142192,0,0)"
         r="6.0342836"
         cy="-175.36765"
         cx="-2331.9993"
         id="circle12780"
         style="fill:#895a4b;fill-opacity:1;stroke:none;stroke-width:30;stroke-linecap:round;stroke-miterlimit:4;stroke-dasharray:none;stroke-opacity:1" />
      <circle
         transform="matrix(-0.93142192,-0.36394122,-0.36394122,0.93142192,0,0)"
         style="fill:#895a4b;fill-opacity:1;stroke:none;stroke-width:30;stroke-linecap:round;stroke-miterlimit:4;stroke-dasharray:none;stroke-opacity:1"
         id="circle12782"
         cx="-2387.9534"
         cy="-181.9505"
         r="6.0342836" />
      <circle
         transform="matrix(-0.93142192,-0.36394122,-0.36394122,0.93142192,0,0)"
         r="6.0342836"
         cy="-217.05908"
         cx="-2369.302"
         id="circle12784"
         style="fill:#895a4b;fill-opacity:1;stroke:none;stroke-width:30;stroke-linecap:round;stroke-miterlimit:4;stroke-dasharray:none;stroke-opacity:1" />
      <circle
         transform="matrix(-0.93142192,-0.36394122,-0.36394122,0.93142192,0,0)"
         style="fill:#895a4b;fill-opacity:1;stroke:none;stroke-width:30;stroke-linecap:round;stroke-miterlimit:4;stroke-dasharray:none;stroke-opacity:1"
         id="circle12786"
         cx="-2345.1648"
         cy="-248.87622"
         r="6.0342836" />
    </g>
  </g>
</svg>
