<?xml version="1.0" encoding="UTF-8" standalone="no"?>
<!-- Created with Inkscape (http://www.inkscape.org/) -->

<svg
   xmlns:dc="http://purl.org/dc/elements/1.1/"
   xmlns:cc="http://creativecommons.org/ns#"
   xmlns:rdf="http://www.w3.org/1999/02/22-rdf-syntax-ns#"
   xmlns:svg="http://www.w3.org/2000/svg"
   xmlns="http://www.w3.org/2000/svg"
   xmlns:sodipodi="http://sodipodi.sourceforge.net/DTD/sodipodi-0.dtd"
   xmlns:inkscape="http://www.inkscape.org/namespaces/inkscape"
   width="732.85583"
   height="498.29678"
   viewBox="0 0 732.85584 498.29679"
   id="svg7924"
   version="1.1"
   inkscape:version="0.91 r13725"
   sodipodi:docname="sun.svg">
  <defs
     id="defs7926" />
  <sodipodi:namedview
     id="base"
     pagecolor="#ffffff"
     bordercolor="#666666"
     borderopacity="1.0"
     inkscape:pageopacity="0.0"
     inkscape:pageshadow="2"
     inkscape:zoom="0.35"
     inkscape:cx="-88.572078"
     inkscape:cy="423.43418"
     inkscape:document-units="px"
     inkscape:current-layer="layer1"
     showgrid="false"
     units="px"
     fit-margin-top="0"
     fit-margin-left="0"
     fit-margin-right="0"
     fit-margin-bottom="0"
     inkscape:window-width="1280"
     inkscape:window-height="751"
     inkscape:window-x="0"
     inkscape:window-y="1"
     inkscape:window-maximized="1" />
  <metadata
     id="metadata7929">
    <rdf:RDF>
      <cc:Work
         rdf:about="">
        <dc:format>image/svg+xml</dc:format>
        <dc:type
           rdf:resource="http://purl.org/dc/dcmitype/StillImage" />
        <dc:title></dc:title>
      </cc:Work>
    </rdf:RDF>
  </metadata>
  <g
     inkscape:label="Ebene 1"
     inkscape:groupmode="layer"
     id="layer1"
     transform="translate(52.142208,-457.49956)">
    <g
       transform="translate(-2411.4117,2693.8971)"
       id="g5924">
      <circle
         r="128.71996"
         cy="-2096.8562"
         cx="2734.408"
         id="path5710"
         style="fill:#fec42b;fill-opacity:1;stroke:none;stroke-width:1.64635265;stroke-linecap:round;stroke-miterlimit:4;stroke-dasharray:none;stroke-opacity:1" />
      <path
         sodipodi:nodetypes="sscscss"
         inkscape:connector-curvature="0"
         id="rect5712"
         d="m 2620.283,-1739.1057 c 15.932,4.4349 34.5617,-6.2953 37.2797,-22.6081 l 23.4836,-140.9442 c 0,0 6.2084,-21.7156 -8.0836,-25.694 -15.932,-4.4349 -20.6804,17.455 -20.6804,17.455 l -52.2356,133.1727 c -6.0388,15.3957 4.3044,34.1837 20.2363,38.6186 z"
         style="fill:#fec42b;fill-opacity:1;stroke:none;stroke-width:2.69625735;stroke-linecap:round;stroke-miterlimit:4;stroke-dasharray:none;stroke-opacity:1" />
      <path
         style="fill:#fec42b;fill-opacity:1;stroke:none;stroke-width:2.69625735;stroke-linecap:round;stroke-miterlimit:4;stroke-dasharray:none;stroke-opacity:1"
         d="m 3091.1195,-2214.4204 c 4.4367,15.9314 -6.2914,34.5624 -22.6038,37.2823 l -140.9416,23.4996 c 0,0 -21.7148,6.2109 -25.6949,-8.0807 -4.4367,-15.9314 17.4526,-20.6823 17.4526,-20.6823 l 133.1668,-52.2508 c 15.395,-6.0406 34.1842,4.3004 38.6209,20.2319 z"
         id="path5799"
         inkscape:connector-curvature="0"
         sodipodi:nodetypes="sscscss" />
      <path
         sodipodi:nodetypes="sscscss"
         inkscape:connector-curvature="0"
         id="path5801"
         d="m 3085.3001,-1963.6133 c -5.6083,15.5577 -25.1433,24.5349 -40.0175,17.3063 l -128.5145,-62.4561 c 0,0 -21.3002,-7.5108 -16.2692,-21.4672 5.6082,-15.5577 26.2052,-6.7556 26.2052,-6.7556 l 138.8248,34.5138 c 16.0492,3.99 25.3794,23.3011 19.7712,38.8588 z"
         style="fill:#fec42b;fill-opacity:1;stroke:none;stroke-width:2.69625735;stroke-linecap:round;stroke-miterlimit:4;stroke-dasharray:none;stroke-opacity:1" />
      <path
         style="fill:#fec42b;fill-opacity:1;stroke:none;stroke-width:2.69625735;stroke-linecap:round;stroke-miterlimit:4;stroke-dasharray:none;stroke-opacity:1"
         d="m 2902.7446,-1761.3654 c -14.9043,7.1664 -35.1302,-0.1219 -40.6734,-15.7029 l -47.8936,-134.6215 c 0,0 -9.929,-20.2861 3.4412,-26.7149 14.9043,-7.1664 23.4266,13.5479 23.4266,13.5479 l 74.8319,121.9169 c 8.6511,14.0944 1.7716,34.408 -13.1327,41.5745 z"
         id="path5803"
         inkscape:connector-curvature="0"
         sodipodi:nodetypes="sscscss" />
      <path
         sodipodi:nodetypes="sscscss"
         inkscape:connector-curvature="0"
         id="path5805"
         d="m 2420.4324,-1894.2393 c -7.4363,-14.7715 -0.517,-35.1266 14.9606,-40.9522 l 133.7282,-50.334 c 0,0 20.1021,-10.2963 26.773,2.9547 7.4363,14.7715 -13.1196,23.6691 -13.1196,23.6691 l -120.5357,77.0368 c -13.9348,8.906 -34.3702,2.3971 -41.8065,-12.3744 z"
         style="fill:#fec42b;fill-opacity:1;stroke:none;stroke-width:2.69625735;stroke-linecap:round;stroke-miterlimit:4;stroke-dasharray:none;stroke-opacity:1" />
      <path
         style="fill:#fec42b;fill-opacity:1;stroke:none;stroke-width:2.69625735;stroke-linecap:round;stroke-miterlimit:4;stroke-dasharray:none;stroke-opacity:1"
         d="m 2359.2969,-2117.4915 c 0.747,-16.5209 16.7451,-30.8828 33.0932,-28.3857 l 141.2489,21.5754 c 0,0 22.5691,0.8627 21.899,15.683 -0.7469,16.5208 -23.027,14.2164 -23.027,14.2164 l -142.8175,8.1671 c -16.5107,0.9442 -31.1436,-14.7354 -30.3966,-31.2562 z"
         id="path5807"
         inkscape:connector-curvature="0"
         sodipodi:nodetypes="sscscss" />
    </g>
  </g>
</svg>
