<?xml version="1.0" encoding="UTF-8" standalone="no"?>
<!-- Created with Inkscape (http://www.inkscape.org/) -->

<svg
   xmlns:dc="http://purl.org/dc/elements/1.1/"
   xmlns:cc="http://creativecommons.org/ns#"
   xmlns:rdf="http://www.w3.org/1999/02/22-rdf-syntax-ns#"
   xmlns:svg="http://www.w3.org/2000/svg"
   xmlns="http://www.w3.org/2000/svg"
   xmlns:sodipodi="http://sodipodi.sourceforge.net/DTD/sodipodi-0.dtd"
   xmlns:inkscape="http://www.inkscape.org/namespaces/inkscape"
   width="171.9866mm"
   height="88.887955mm"
   viewBox="0 0 609.40135 314.95732"
   id="svg10781"
   version="1.1"
   inkscape:version="0.91 r13725"
   sodipodi:docname="threefloures2.svg">
  <defs
     id="defs10783" />
  <sodipodi:namedview
     id="base"
     pagecolor="#ffffff"
     bordercolor="#666666"
     borderopacity="1.0"
     inkscape:pageopacity="0.0"
     inkscape:pageshadow="2"
     inkscape:zoom="0.35"
     inkscape:cx="-156.01361"
     inkscape:cy="-33.949913"
     inkscape:document-units="px"
     inkscape:current-layer="layer1"
     showgrid="false"
     fit-margin-top="0"
     fit-margin-left="0"
     fit-margin-right="0"
     fit-margin-bottom="0"
     inkscape:window-width="1280"
     inkscape:window-height="751"
     inkscape:window-x="0"
     inkscape:window-y="1"
     inkscape:window-maximized="1" />
  <metadata
     id="metadata10786">
    <rdf:RDF>
      <cc:Work
         rdf:about="">
        <dc:format>image/svg+xml</dc:format>
        <dc:type
           rdf:resource="http://purl.org/dc/dcmitype/StillImage" />
        <dc:title></dc:title>
      </cc:Work>
    </rdf:RDF>
  </metadata>
  <g
     inkscape:label="Ebene 1"
     inkscape:groupmode="layer"
     id="layer1"
     transform="translate(-15.299325,-183.45498)">
    <g
       id="g9537"
       transform="matrix(0.6249529,0,0,0.73375056,-1476.143,-736.91898)">
      <g
         transform="matrix(0.66572379,0,0,0.66572379,1391.1912,889.04702)"
         id="g9328">
        <path
           sodipodi:nodetypes="sssssssssss"
           inkscape:connector-curvature="0"
           id="path9324"
           d="m 1771.9911,954.13206 c -13.0718,25.00702 101.4276,57.48844 -2.6418,117.37114 -98.2097,56.5109 -77.7288,-74.71757 -105.5513,-79.42205 -27.8225,-4.70447 -33.8011,158.72435 -123.2986,66.67435 -97.73,-100.51729 48.8866,-96.45394 44.7632,-124.36849 -4.1234,-27.91454 -126.9164,21.03998 -79.2144,-91.28351 56.5795,-133.22713 94.4296,2.64665 119.7038,-9.90101 25.2741,-12.54767 -18.1517,-102.33604 79.0251,-89.83545 137.1448,17.64199 24.6311,78.18806 44.3747,98.34772 19.7437,20.15966 79.5065,-80.99305 114.7011,37.07353 37.0795,124.39011 -78.7899,50.33675 -91.8618,75.34377 z"
           inkscape:transform-center-y="12.811245"
           inkscape:transform-center-x="14.616596"
           style="fill:#e25a00;fill-opacity:1;stroke:none;stroke-width:30;stroke-linecap:round;stroke-miterlimit:4;stroke-dasharray:none;stroke-opacity:1" />
        <ellipse
           inkscape:transform-center-y="-739.43166"
           inkscape:transform-center-x="4.0406102"
           ry="51.42857"
           rx="68.571426"
           cy="912.36816"
           cx="1674.6195"
           id="ellipse9326"
           style="fill:#61cbe6;fill-opacity:1;stroke:none;stroke-width:30;stroke-linecap:round;stroke-miterlimit:4;stroke-dasharray:none;stroke-opacity:1" />
      </g>
      <g
         transform="matrix(0.69611249,0,0,0.70164462,3392.3095,1320.4575)"
         id="g9390">
        <path
           sodipodi:nodetypes="sssssssssss"
           inkscape:connector-curvature="0"
           id="path9386"
           d="m -143.25812,117.72575 c -13.07185,25.00702 101.4276,57.48846 -2.64179,117.37111 -98.20975,56.51094 -77.72882,-74.71754 -105.55134,-79.42202 -27.82251,-4.70447 -33.80103,158.72437 -123.29857,66.67433 -97.72997,-100.51727 48.88664,-96.45392 44.76323,-124.368467 -4.12341,-27.91454 -126.9164,21.039977 -79.2144,-91.2835104 56.57942,-133.2271326 94.42961,2.64665 119.70372,-9.90101 25.2741,-12.5476696 -18.15163,-102.3360426 79.02516,-89.8354506 137.1448,17.64199 24.63106,78.188061 44.37472,98.3477206 19.74367,20.1596604 79.50651,-80.9930506 114.70104,37.0735304 37.07951,124.390077 -78.78992,50.33675 -91.86177,75.343767 z"
           inkscape:transform-center-y="12.811245"
           inkscape:transform-center-x="14.616596"
           style="fill:#895a4b;fill-opacity:1;stroke:none;stroke-width:30;stroke-linecap:round;stroke-miterlimit:4;stroke-dasharray:none;stroke-opacity:1" />
        <ellipse
           ry="51.42857"
           rx="68.571426"
           cy="75.11483"
           cx="-242.63116"
           id="ellipse9388"
           style="fill:#ef4b53;fill-opacity:1;stroke:none;stroke-width:30;stroke-linecap:round;stroke-miterlimit:4;stroke-dasharray:none;stroke-opacity:1" />
      </g>
      <g
         transform="matrix(0.46959035,0,0,0.46959035,1868.9957,1015.6891)"
         id="g9426">
        <path
           style="fill:#efc043;fill-opacity:1;stroke:none;stroke-width:30;stroke-linecap:round;stroke-miterlimit:4;stroke-dasharray:none;stroke-opacity:1"
           inkscape:transform-center-x="14.616596"
           inkscape:transform-center-y="12.811245"
           d="m 2042.712,1289.5027 c -13.0719,25.007 101.4276,57.4884 -2.6418,117.3711 -98.2098,56.5109 -77.7288,-74.7175 -105.5514,-79.422 -27.8225,-4.7045 -33.801,158.7243 -123.2985,66.6743 -97.73,-100.5173 48.8866,-96.4539 44.7632,-124.3685 -4.1234,-27.9145 -126.9164,21.04 -79.2144,-91.2835 56.5794,-133.2271 94.4296,2.6467 119.7037,-9.901 25.2741,-12.5477 -18.1516,-102.336 79.0252,-89.8354 137.1448,17.642 24.631,78.188 44.3747,98.3477 19.7437,20.1596 79.5065,-80.9931 114.701,37.0735 37.0795,124.3901 -78.7899,50.3368 -91.8617,75.3438 z"
           id="path9418"
           inkscape:connector-curvature="0"
           sodipodi:nodetypes="sssssssssss" />
        <ellipse
           ry="51.42857"
           rx="68.571426"
           cy="1239.8258"
           cx="1948.8153"
           id="ellipse9424"
           style="fill:#2aae4a;fill-opacity:1;stroke:none;stroke-width:30;stroke-linecap:round;stroke-miterlimit:4;stroke-dasharray:none;stroke-opacity:1" />
      </g>
    </g>
  </g>
</svg>
