<?xml version="1.0" encoding="UTF-8" standalone="no"?>
<!-- Created with Inkscape (http://www.inkscape.org/) -->

<svg
   xmlns:dc="http://purl.org/dc/elements/1.1/"
   xmlns:cc="http://creativecommons.org/ns#"
   xmlns:rdf="http://www.w3.org/1999/02/22-rdf-syntax-ns#"
   xmlns:svg="http://www.w3.org/2000/svg"
   xmlns="http://www.w3.org/2000/svg"
   xmlns:sodipodi="http://sodipodi.sourceforge.net/DTD/sodipodi-0.dtd"
   xmlns:inkscape="http://www.inkscape.org/namespaces/inkscape"
   width="223.29761mm"
   height="263.80545mm"
   viewBox="0 0 791.21199 934.74372"
   id="svg12040"
   version="1.1"
   inkscape:version="0.91 r13725"
   sodipodi:docname="tree.svg">
  <defs
     id="defs12042" />
  <sodipodi:namedview
     id="base"
     pagecolor="#ffffff"
     bordercolor="#666666"
     borderopacity="1.0"
     inkscape:pageopacity="0.0"
     inkscape:pageshadow="2"
     inkscape:zoom="0.35"
     inkscape:cx="341.32026"
     inkscape:cy="247.17081"
     inkscape:document-units="px"
     inkscape:current-layer="layer1"
     showgrid="false"
     fit-margin-top="0"
     fit-margin-left="0"
     fit-margin-right="0"
     fit-margin-bottom="0"
     inkscape:window-width="1280"
     inkscape:window-height="751"
     inkscape:window-x="0"
     inkscape:window-y="1"
     inkscape:window-maximized="1" />
  <metadata
     id="metadata12045">
    <rdf:RDF>
      <cc:Work
         rdf:about="">
        <dc:format>image/svg+xml</dc:format>
        <dc:type
           rdf:resource="http://purl.org/dc/dcmitype/StillImage" />
        <dc:title></dc:title>
      </cc:Work>
    </rdf:RDF>
  </metadata>
  <g
     inkscape:label="Ebene 1"
     inkscape:groupmode="layer"
     id="layer1"
     transform="translate(24.891693,155.21073)">
    <g
       transform="matrix(0.73469467,0,0,0.73469467,-2294.0493,316.40667)"
       id="g9473">
      <path
         sodipodi:nodetypes="cccccccsssscccc"
         inkscape:connector-curvature="0"
         id="rect9142"
         d="m 3628.2284,92.38651 47.8543,-337.16715 73.7152,27.32493 -22.3986,270.89951 151.8207,-256.79794 9.9879,11.65303 -165.0788,404.97055 13.1756,413.56013 c 0.046,1.46 -0.9324,2.6374 -2.0907,2.6374 l -111.7162,0 c -1.1582,0 -75.6861,1.7665 -75.4135,0.3464 l 68.6342,-357.61849 -167.1472,-339.62198 1.5375,-7.62449 z"
         style="fill:#895a4b;fill-opacity:1;stroke:none;stroke-width:30;stroke-linecap:round;stroke-miterlimit:4;stroke-dasharray:none;stroke-opacity:1" />
      <path
         inkscape:connector-curvature="0"
         id="path9145"
         d="m 3764.253,-641.92299 a 205.64225,178.91156 0 0 0 -195.3601,123.42134 308.46338,343.1849 0 0 0 -171.8572,-58.36291 308.46338,343.1849 0 0 0 -308.4634,343.18396 308.46338,343.1849 0 0 0 308.4634,343.18618 308.46338,343.1849 0 0 0 275.2473,-189.1202 286.99942,235.5919 0 0 0 206.2157,71.7673 286.99942,235.5919 0 0 0 286.9999,-235.59082 286.99942,235.5919 0 0 0 -195.7484,-223.1404 205.64225,178.91156 0 0 0 -205.4972,-175.34445 z"
         style="fill:#d7cb70;fill-opacity:1;stroke:none;stroke-width:30;stroke-linecap:round;stroke-miterlimit:4;stroke-dasharray:none;stroke-opacity:1" />
      <g
         transform="translate(3340,-382.85714)"
         id="g9164">
        <g
           id="g9161">
          <path
             style="fill:#ef4b53;fill-opacity:1;stroke:none;stroke-width:30;stroke-linecap:round;stroke-miterlimit:4;stroke-dasharray:none;stroke-opacity:1"
             inkscape:transform-center-x="3.4010481"
             inkscape:transform-center-y="2.6184348"
             d="m -60.837214,-28.10116 c -3.041611,5.111077 23.600583,11.749817 -0.614702,23.988972 -22.851842,11.5500258 -18.086257,-15.271194 -24.560113,-16.232722 -6.473854,-0.961526 -7.86496,32.440985 -28.689611,13.627277 -22.7402,-20.544289 11.37514,-19.713798 10.41569,-25.419132 -0.95945,-5.705332 -29.53142,4.30027 -18.43192,-18.657041 13.16512,-27.229713 21.97226,0.540938 27.85314,-2.023624 5.880879,-2.564564 -4.223595,-20.916019 18.387893,-18.361078 31.911406,3.60577 5.731255,15.980518 10.32529,20.100864 4.594036,4.120345 18.499895,-16.553818 26.6891,7.577297 8.62781,25.42355 -18.333156,10.288111 -21.374767,15.399187 z"
             id="path9157"
             inkscape:connector-curvature="0"
             sodipodi:nodetypes="sssssssssss" />
        </g>
        <ellipse
           ry="10.511262"
           rx="15.955476"
           cy="-39.114628"
           cx="-86.351135"
           id="ellipse9159"
           style="fill:#efc043;fill-opacity:1;stroke:none;stroke-width:30;stroke-linecap:round;stroke-miterlimit:4;stroke-dasharray:none;stroke-opacity:1" />
      </g>
      <g
         transform="matrix(0,1,-1,0,4048.0021,-227.5272)"
         id="g9169">
        <g
           id="g9171">
          <path
             sodipodi:nodetypes="sssssssssss"
             inkscape:connector-curvature="0"
             id="path9173"
             d="m -60.837214,-28.10116 c -3.041611,5.111077 23.600583,11.749817 -0.614702,23.988972 -22.851842,11.5500258 -18.086257,-15.271194 -24.560113,-16.232722 -6.473854,-0.961526 -7.86496,32.440985 -28.689611,13.627277 -22.7402,-20.544289 11.37514,-19.713798 10.41569,-25.419132 -0.95945,-5.705332 -29.53142,4.30027 -18.43192,-18.657041 13.16512,-27.229713 21.97226,0.540938 27.85314,-2.023624 5.880879,-2.564564 -4.223595,-20.916019 18.387893,-18.361078 31.911406,3.60577 5.731255,15.980518 10.32529,20.100864 4.594036,4.120345 18.499895,-16.553818 26.6891,7.577297 8.62781,25.42355 -18.333156,10.288111 -21.374767,15.399187 z"
             inkscape:transform-center-y="2.6184348"
             inkscape:transform-center-x="3.4010481"
             style="fill:#ef4b53;fill-opacity:1;stroke:none;stroke-width:30;stroke-linecap:round;stroke-miterlimit:4;stroke-dasharray:none;stroke-opacity:1" />
        </g>
        <ellipse
           style="fill:#efc043;fill-opacity:1;stroke:none;stroke-width:30;stroke-linecap:round;stroke-miterlimit:4;stroke-dasharray:none;stroke-opacity:1"
           id="ellipse9175"
           cx="-86.351135"
           cy="-39.114628"
           rx="15.955476"
           ry="10.511262" />
      </g>
      <g
         transform="translate(3845.7143,-471.42857)"
         id="g9177">
        <g
           id="g9179">
          <path
             style="fill:#ef4b53;fill-opacity:1;stroke:none;stroke-width:30;stroke-linecap:round;stroke-miterlimit:4;stroke-dasharray:none;stroke-opacity:1"
             inkscape:transform-center-x="3.4010481"
             inkscape:transform-center-y="2.6184348"
             d="m -60.837214,-28.10116 c -3.041611,5.111077 23.600583,11.749817 -0.614702,23.988972 -22.851842,11.5500258 -18.086257,-15.271194 -24.560113,-16.232722 -6.473854,-0.961526 -7.86496,32.440985 -28.689611,13.627277 -22.7402,-20.544289 11.37514,-19.713798 10.41569,-25.419132 -0.95945,-5.705332 -29.53142,4.30027 -18.43192,-18.657041 13.16512,-27.229713 21.97226,0.540938 27.85314,-2.023624 5.880879,-2.564564 -4.223595,-20.916019 18.387893,-18.361078 31.911406,3.60577 5.731255,15.980518 10.32529,20.100864 4.594036,4.120345 18.499895,-16.553818 26.6891,7.577297 8.62781,25.42355 -18.333156,10.288111 -21.374767,15.399187 z"
             id="path9181"
             inkscape:connector-curvature="0"
             sodipodi:nodetypes="sssssssssss" />
        </g>
        <ellipse
           ry="10.511262"
           rx="15.955476"
           cy="-39.114628"
           cx="-86.351135"
           id="ellipse9183"
           style="fill:#efc043;fill-opacity:1;stroke:none;stroke-width:30;stroke-linecap:round;stroke-miterlimit:4;stroke-dasharray:none;stroke-opacity:1" />
      </g>
      <g
         transform="matrix(-1,0,0,1,3478.3864,-315.71429)"
         id="g9185">
        <g
           id="g9187">
          <path
             sodipodi:nodetypes="sssssssssss"
             inkscape:connector-curvature="0"
             id="path9189"
             d="m -60.837214,-28.10116 c -3.041611,5.111077 23.600583,11.749817 -0.614702,23.988972 -22.851842,11.5500258 -18.086257,-15.271194 -24.560113,-16.232722 -6.473854,-0.961526 -7.86496,32.440985 -28.689611,13.627277 -22.7402,-20.544289 11.37514,-19.713798 10.41569,-25.419132 -0.95945,-5.705332 -29.53142,4.30027 -18.43192,-18.657041 13.16512,-27.229713 21.97226,0.540938 27.85314,-2.023624 5.880879,-2.564564 -4.223595,-20.916019 18.387893,-18.361078 31.911406,3.60577 5.731255,15.980518 10.32529,20.100864 4.594036,4.120345 18.499895,-16.553818 26.6891,7.577297 8.62781,25.42355 -18.333156,10.288111 -21.374767,15.399187 z"
             inkscape:transform-center-y="2.6184348"
             inkscape:transform-center-x="3.4010481"
             style="fill:#ef4b53;fill-opacity:1;stroke:none;stroke-width:30;stroke-linecap:round;stroke-miterlimit:4;stroke-dasharray:none;stroke-opacity:1" />
        </g>
        <ellipse
           style="fill:#efc043;fill-opacity:1;stroke:none;stroke-width:30;stroke-linecap:round;stroke-miterlimit:4;stroke-dasharray:none;stroke-opacity:1"
           id="ellipse9191"
           cx="-86.351135"
           cy="-39.114628"
           rx="15.955476"
           ry="10.511262" />
      </g>
      <g
         transform="matrix(1,0,0,-1,3451.4286,-272.38227)"
         id="g9195">
        <path
           sodipodi:nodetypes="sssssssssss"
           inkscape:connector-curvature="0"
           id="path9197"
           d="m -60.837214,-28.10116 c -3.041611,5.111077 23.600583,11.749817 -0.614702,23.988972 -22.851842,11.5500258 -18.086257,-15.271194 -24.560113,-16.232722 -6.473854,-0.961526 -7.86496,32.440985 -28.689611,13.627277 -22.7402,-20.544289 11.37514,-19.713798 10.41569,-25.419132 -0.95945,-5.705332 -29.53142,4.30027 -18.43192,-18.657041 13.16512,-27.229713 21.97226,0.540938 27.85314,-2.023624 5.880879,-2.564564 -4.223595,-20.916019 18.387893,-18.361078 31.911406,3.60577 5.731255,15.980518 10.32529,20.100864 4.594036,4.120345 18.499895,-16.553818 26.6891,7.577297 8.62781,25.42355 -18.333156,10.288111 -21.374767,15.399187 z"
           inkscape:transform-center-y="2.6184348"
           inkscape:transform-center-x="3.4010481"
           style="fill:#ef4b53;fill-opacity:1;stroke:none;stroke-width:30;stroke-linecap:round;stroke-miterlimit:4;stroke-dasharray:none;stroke-opacity:1" />
      </g>
      <ellipse
         transform="scale(1,-1)"
         style="fill:#efc043;fill-opacity:1;stroke:none;stroke-width:30;stroke-linecap:round;stroke-miterlimit:4;stroke-dasharray:none;stroke-opacity:1"
         id="ellipse9199"
         cx="3367.9346"
         cy="238.98192"
         rx="15.955476"
         ry="10.511262" />
      <g
         id="g9201"
         transform="matrix(-1,0,0,-1,3822.6721,-113.81084)">
        <g
           id="g9203">
          <path
             sodipodi:nodetypes="sssssssssss"
             inkscape:connector-curvature="0"
             id="path9205"
             d="m -60.837214,-28.10116 c -3.041611,5.111077 23.600583,11.749817 -0.614702,23.988972 -22.851842,11.5500258 -18.086257,-15.271194 -24.560113,-16.232722 -6.473854,-0.961526 -7.86496,32.440985 -28.689611,13.627277 -22.7402,-20.544289 11.37514,-19.713798 10.41569,-25.419132 -0.95945,-5.705332 -29.53142,4.30027 -18.43192,-18.657041 13.16512,-27.229713 21.97226,0.540938 27.85314,-2.023624 5.880879,-2.564564 -4.223595,-20.916019 18.387893,-18.361078 31.911406,3.60577 5.731255,15.980518 10.32529,20.100864 4.594036,4.120345 18.499895,-16.553818 26.6891,7.577297 8.62781,25.42355 -18.333156,10.288111 -21.374767,15.399187 z"
             inkscape:transform-center-y="2.6184348"
             inkscape:transform-center-x="3.4010481"
             style="fill:#ef4b53;fill-opacity:1;stroke:none;stroke-width:30;stroke-linecap:round;stroke-miterlimit:4;stroke-dasharray:none;stroke-opacity:1" />
        </g>
        <ellipse
           style="fill:#efc043;fill-opacity:1;stroke:none;stroke-width:30;stroke-linecap:round;stroke-miterlimit:4;stroke-dasharray:none;stroke-opacity:1"
           id="ellipse9207"
           cx="-86.351135"
           cy="-39.114628"
           rx="15.955476"
           ry="10.511262" />
      </g>
      <g
         transform="translate(3685.7143,-37.14286)"
         id="g9209">
        <g
           id="g9211">
          <path
             style="fill:#ef4b53;fill-opacity:1;stroke:none;stroke-width:30;stroke-linecap:round;stroke-miterlimit:4;stroke-dasharray:none;stroke-opacity:1"
             inkscape:transform-center-x="3.4010481"
             inkscape:transform-center-y="2.6184348"
             d="m -60.837214,-28.10116 c -3.041611,5.111077 23.600583,11.749817 -0.614702,23.988972 -22.851842,11.5500258 -18.086257,-15.271194 -24.560113,-16.232722 -6.473854,-0.961526 -7.86496,32.440985 -28.689611,13.627277 -22.7402,-20.544289 11.37514,-19.713798 10.41569,-25.419132 -0.95945,-5.705332 -29.53142,4.30027 -18.43192,-18.657041 13.16512,-27.229713 21.97226,0.540938 27.85314,-2.023624 5.880879,-2.564564 -4.223595,-20.916019 18.387893,-18.361078 31.911406,3.60577 5.731255,15.980518 10.32529,20.100864 4.594036,4.120345 18.499895,-16.553818 26.6891,7.577297 8.62781,25.42355 -18.333156,10.288111 -21.374767,15.399187 z"
             id="path9213"
             inkscape:connector-curvature="0"
             sodipodi:nodetypes="sssssssssss" />
        </g>
        <ellipse
           ry="10.511262"
           rx="15.955476"
           cy="-39.114628"
           cx="-86.351135"
           id="ellipse9215"
           style="fill:#efc043;fill-opacity:1;stroke:none;stroke-width:30;stroke-linecap:round;stroke-miterlimit:4;stroke-dasharray:none;stroke-opacity:1" />
      </g>
      <g
         id="g9217"
         transform="translate(3362.8572,5.71428)">
        <g
           id="g9219">
          <path
             sodipodi:nodetypes="sssssssssss"
             inkscape:connector-curvature="0"
             id="path9221"
             d="m -60.837214,-28.10116 c -3.041611,5.111077 23.600583,11.749817 -0.614702,23.988972 -22.851842,11.5500258 -18.086257,-15.271194 -24.560113,-16.232722 -6.473854,-0.961526 -7.86496,32.440985 -28.689611,13.627277 -22.7402,-20.544289 11.37514,-19.713798 10.41569,-25.419132 -0.95945,-5.705332 -29.53142,4.30027 -18.43192,-18.657041 13.16512,-27.229713 21.97226,0.540938 27.85314,-2.023624 5.880879,-2.564564 -4.223595,-20.916019 18.387893,-18.361078 31.911406,3.60577 5.731255,15.980518 10.32529,20.100864 4.594036,4.120345 18.499895,-16.553818 26.6891,7.577297 8.62781,25.42355 -18.333156,10.288111 -21.374767,15.399187 z"
             inkscape:transform-center-y="2.6184348"
             inkscape:transform-center-x="3.4010481"
             style="fill:#ef4b53;fill-opacity:1;stroke:none;stroke-width:30;stroke-linecap:round;stroke-miterlimit:4;stroke-dasharray:none;stroke-opacity:1" />
        </g>
        <ellipse
           style="fill:#efc043;fill-opacity:1;stroke:none;stroke-width:30;stroke-linecap:round;stroke-miterlimit:4;stroke-dasharray:none;stroke-opacity:1"
           id="ellipse9223"
           cx="-86.351135"
           cy="-39.114628"
           rx="15.955476"
           ry="10.511262" />
      </g>
      <g
         id="g9228"
         transform="translate(3930,-220)">
        <g
           id="g9230">
          <path
             sodipodi:nodetypes="sssssssssss"
             inkscape:connector-curvature="0"
             id="path9232"
             d="m -60.837214,-28.10116 c -3.041611,5.111077 23.600583,11.749817 -0.614702,23.988972 -22.851842,11.5500258 -18.086257,-15.271194 -24.560113,-16.232722 -6.473854,-0.961526 -7.86496,32.440985 -28.689611,13.627277 -22.7402,-20.544289 11.37514,-19.713798 10.41569,-25.419132 -0.95945,-5.705332 -29.53142,4.30027 -18.43192,-18.657041 13.16512,-27.229713 21.97226,0.540938 27.85314,-2.023624 5.880879,-2.564564 -4.223595,-20.916019 18.387893,-18.361078 31.911406,3.60577 5.731255,15.980518 10.32529,20.100864 4.594036,4.120345 18.499895,-16.553818 26.6891,7.577297 8.62781,25.42355 -18.333156,10.288111 -21.374767,15.399187 z"
             inkscape:transform-center-y="2.6184348"
             inkscape:transform-center-x="3.4010481"
             style="fill:#ef4b53;fill-opacity:1;stroke:none;stroke-width:30;stroke-linecap:round;stroke-miterlimit:4;stroke-dasharray:none;stroke-opacity:1" />
        </g>
        <ellipse
           style="fill:#efc043;fill-opacity:1;stroke:none;stroke-width:30;stroke-linecap:round;stroke-miterlimit:4;stroke-dasharray:none;stroke-opacity:1"
           id="ellipse9234"
           cx="-86.351135"
           cy="-39.114628"
           rx="15.955476"
           ry="10.511262" />
      </g>
      <path
         sodipodi:nodetypes="csscssasc"
         inkscape:connector-curvature="0"
         id="rect9236"
         d="m 3739.8026,622.92767 c -1.3768,3.9535 -3.7227,6.7054 -5.2599,6.1701 l -2.8788,-1.0025 c -1.5372,-0.5353 -1.6662,-4.1492 -0.2894,-8.1027 5.2611,-12.7418 10.21,-36.37088 18.055,-55.49404 4.5837,-11.17321 10.2058,-25.22305 15.7671,-30.12002 4.8083,-4.234 11.9403,-3.69952 10.8917,5.43976 -1.332,11.60954 -10.5663,12.27076 -18.1737,30.89986 -7.1575,17.52745 -12.9689,37.44135 -18.1119,52.20954 z"
         style="fill:#2aae4a;fill-opacity:1;stroke:none;stroke-width:30;stroke-linecap:round;stroke-miterlimit:4;stroke-dasharray:none;stroke-opacity:1" />
      <path
         style="fill:#2aae4a;fill-opacity:1;stroke:none;stroke-width:30;stroke-linecap:round;stroke-miterlimit:4;stroke-dasharray:none;stroke-opacity:1"
         d="m 3735.4172,624.77757 c -2.5314,3.3343 -5.6131,5.2265 -6.9095,4.2423 l -2.428,-1.8433 c -1.2964,-0.9842 -0.3021,-4.461 2.2292,-7.7954 8.9419,-10.49174 20.9519,-31.43409 34.3235,-47.19607 7.8127,-9.20935 17.5022,-20.83347 24.3047,-23.77175 5.8815,-2.54048 12.4991,0.17225 8.6771,8.53991 -4.8552,10.62936 -13.8418,8.40397 -26.8346,23.76952 -12.2246,14.45689 -23.9065,31.59939 -33.3624,44.05479 z"
         id="path9239"
         inkscape:connector-curvature="0"
         sodipodi:nodetypes="csscssasc" />
      <path
         sodipodi:nodetypes="csscssasc"
         inkscape:connector-curvature="0"
         id="path9241"
         d="m 3732.426,619.97527 c 0.7752,4.114 0.1115,7.6687 -1.4881,7.9701 l -2.9955,0.5645 c -1.5996,0.3015 -3.5115,-2.768 -4.2867,-6.882 -1.7841,-13.66922 -9.2615,-36.62379 -11.9834,-57.11356 -1.5904,-11.97167 -3.7129,-26.95506 -1.3296,-33.97126 2.0607,-6.06634 8.5114,-9.15508 12.1541,-0.70779 4.6273,10.7305 -3.0509,15.9032 -0.369,35.84619 2.5233,18.76365 7.4024,38.92621 10.2982,54.29382 z"
         style="fill:#2aae4a;fill-opacity:1;stroke:none;stroke-width:30;stroke-linecap:round;stroke-miterlimit:4;stroke-dasharray:none;stroke-opacity:1" />
      <path
         style="fill:#2aae4a;fill-opacity:1;stroke:none;stroke-width:30;stroke-linecap:round;stroke-miterlimit:4;stroke-dasharray:none;stroke-opacity:1"
         d="m 3738.2546,611.49187 c -0.6722,4.1321 -2.5068,7.2484 -4.1134,6.987 l -3.0088,-0.4894 c -1.6066,-0.2613 -2.3588,-3.7985 -1.6866,-7.93054 2.9778,-13.45978 3.7647,-37.58872 8.1836,-57.78062 2.5818,-11.79765 5.689,-26.60821 10.3193,-32.39332 4.0034,-5.00191 11.1204,-5.70917 11.6685,3.47372 0.6963,11.66494 -8.2845,13.91354 -12.5548,33.57772 -4.0177,18.50132 -6.2968,39.12027 -8.8078,54.55544 z"
         id="path9243"
         inkscape:connector-curvature="0"
         sodipodi:nodetypes="csscssasc" />
    </g>
  </g>
</svg>
