<?xml version="1.0" encoding="UTF-8" standalone="no"?>
<!-- Created with Inkscape (http://www.inkscape.org/) -->

<svg
   xmlns:dc="http://purl.org/dc/elements/1.1/"
   xmlns:cc="http://creativecommons.org/ns#"
   xmlns:rdf="http://www.w3.org/1999/02/22-rdf-syntax-ns#"
   xmlns:svg="http://www.w3.org/2000/svg"
   xmlns="http://www.w3.org/2000/svg"
   xmlns:sodipodi="http://sodipodi.sourceforge.net/DTD/sodipodi-0.dtd"
   xmlns:inkscape="http://www.inkscape.org/namespaces/inkscape"
   width="186.20555mm"
   height="219.98462mm"
   viewBox="0 0 659.78345 779.47306"
   id="svg26409"
   version="1.1"
   inkscape:version="0.91 r13725"
   sodipodi:docname="treedots.svg">
  <defs
     id="defs26411" />
  <sodipodi:namedview
     id="base"
     pagecolor="#ffffff"
     bordercolor="#666666"
     borderopacity="1.0"
     inkscape:pageopacity="0.0"
     inkscape:pageshadow="2"
     inkscape:zoom="0.35"
     inkscape:cx="117.74886"
     inkscape:cy="160.47155"
     inkscape:document-units="px"
     inkscape:current-layer="layer1"
     showgrid="false"
     fit-margin-top="0"
     fit-margin-left="0"
     fit-margin-right="0"
     fit-margin-bottom="0"
     inkscape:window-width="1280"
     inkscape:window-height="751"
     inkscape:window-x="0"
     inkscape:window-y="1"
     inkscape:window-maximized="1" />
  <metadata
     id="metadata26414">
    <rdf:RDF>
      <cc:Work
         rdf:about="">
        <dc:format>image/svg+xml</dc:format>
        <dc:type
           rdf:resource="http://purl.org/dc/dcmitype/StillImage" />
        <dc:title></dc:title>
      </cc:Work>
    </rdf:RDF>
  </metadata>
  <g
     inkscape:label="Ebene 1"
     inkscape:groupmode="layer"
     id="layer1"
     transform="translate(29.891719,86.639299)">
    <g
       transform="matrix(0.61265422,0,0,0.61265422,-2549.2541,357.97962)"
       id="g26366">
      <path
         style="fill:#895a4b;fill-opacity:1;stroke:none;stroke-width:30;stroke-linecap:round;stroke-miterlimit:4;stroke-dasharray:none;stroke-opacity:1"
         d="m 4651.8654,8.583786 47.8543,-337.167146 73.7152,27.32493 -22.3986,270.899506 151.8207,-256.797936 9.9879,11.65303 -165.0788,404.97055 13.1756,413.56013 c 0.046,1.46 -0.9324,2.6374 -2.0907,2.6374 l -111.7162,0 c -1.1582,0 -75.6861,1.7665 -75.4135,0.3464 l 68.6342,-357.61849 -167.1472,-339.62198 1.5375,-7.62449 z"
         id="path14118"
         inkscape:connector-curvature="0"
         sodipodi:nodetypes="cccccccsssscccc" />
      <path
         style="fill:#d7cb70;fill-opacity:1;stroke:none;stroke-width:30;stroke-linecap:round;stroke-miterlimit:4;stroke-dasharray:none;stroke-opacity:1"
         d="m 4787.89,-725.72571 a 205.64225,178.91156 0 0 0 -195.3601,123.42134 308.46338,343.1849 0 0 0 -171.8572,-58.36291 308.46338,343.1849 0 0 0 -308.4634,343.18396 308.46338,343.1849 0 0 0 308.4634,343.186176 308.46338,343.1849 0 0 0 275.2473,-189.120196 286.99942,235.5919 0 0 0 206.2157,71.767296 286.99942,235.5919 0 0 0 286.9999,-235.590816 286.99942,235.5919 0 0 0 -195.7484,-223.1404 205.64225,178.91156 0 0 0 -205.4972,-175.34445 z"
         id="path14120"
         inkscape:connector-curvature="0" />
      <path
         style="fill:#2aae4a;fill-opacity:1;stroke:none;stroke-width:30;stroke-linecap:round;stroke-miterlimit:4;stroke-dasharray:none;stroke-opacity:1"
         d="m 4763.4396,539.12495 c -1.3768,3.9535 -3.7227,6.7054 -5.2599,6.1701 l -2.8788,-1.0025 c -1.5372,-0.5353 -1.6662,-4.1492 -0.2894,-8.1027 5.2611,-12.7418 10.21,-36.37088 18.055,-55.49404 4.5837,-11.17321 10.2058,-25.22305 15.7671,-30.12002 4.8083,-4.234 11.9403,-3.69952 10.8917,5.43976 -1.332,11.60954 -10.5663,12.27076 -18.1737,30.89986 -7.1575,17.52745 -12.9689,37.44135 -18.1119,52.20954 z"
         id="path14192"
         inkscape:connector-curvature="0"
         sodipodi:nodetypes="csscssasc" />
      <path
         sodipodi:nodetypes="csscssasc"
         inkscape:connector-curvature="0"
         id="path14194"
         d="m 4759.0542,540.97485 c -2.5314,3.3343 -5.6131,5.2265 -6.9095,4.2423 l -2.428,-1.8433 c -1.2964,-0.9842 -0.3021,-4.461 2.2292,-7.7954 8.9419,-10.49174 20.9519,-31.43409 34.3235,-47.19607 7.8127,-9.20935 17.5022,-20.83347 24.3047,-23.77175 5.8815,-2.54048 12.4991,0.17225 8.6771,8.53991 -4.8552,10.62936 -13.8418,8.40397 -26.8346,23.76952 -12.2246,14.45689 -23.9065,31.59939 -33.3624,44.05479 z"
         style="fill:#2aae4a;fill-opacity:1;stroke:none;stroke-width:30;stroke-linecap:round;stroke-miterlimit:4;stroke-dasharray:none;stroke-opacity:1" />
      <path
         style="fill:#2aae4a;fill-opacity:1;stroke:none;stroke-width:30;stroke-linecap:round;stroke-miterlimit:4;stroke-dasharray:none;stroke-opacity:1"
         d="m 4756.063,536.17255 c 0.7752,4.114 0.1115,7.6687 -1.4881,7.9701 l -2.9955,0.5645 c -1.5996,0.3015 -3.5115,-2.768 -4.2867,-6.882 -1.7841,-13.66922 -9.2615,-36.62379 -11.9834,-57.11356 -1.5904,-11.97167 -3.7129,-26.95506 -1.3296,-33.97126 2.0607,-6.06634 8.5114,-9.15508 12.1541,-0.70779 4.6273,10.7305 -3.0509,15.9032 -0.369,35.84619 2.5233,18.76365 7.4024,38.92621 10.2982,54.29382 z"
         id="path14196"
         inkscape:connector-curvature="0"
         sodipodi:nodetypes="csscssasc" />
      <path
         sodipodi:nodetypes="csscssasc"
         inkscape:connector-curvature="0"
         id="path14198"
         d="m 4761.8916,527.68915 c -0.6722,4.1321 -2.5068,7.2484 -4.1134,6.987 l -3.0088,-0.4894 c -1.6066,-0.2613 -2.3588,-3.7985 -1.6866,-7.93054 2.9778,-13.45978 3.7647,-37.58872 8.1836,-57.78062 2.5818,-11.79765 5.689,-26.60821 10.3193,-32.39332 4.0034,-5.00191 11.1204,-5.70917 11.6685,3.47372 0.6963,11.66494 -8.2845,13.91354 -12.5548,33.57772 -4.0177,18.50132 -6.2968,39.12027 -8.8078,54.55544 z"
         style="fill:#2aae4a;fill-opacity:1;stroke:none;stroke-width:30;stroke-linecap:round;stroke-miterlimit:4;stroke-dasharray:none;stroke-opacity:1" />
      <ellipse
         ry="55.794323"
         rx="56.901352"
         cy="-498.04803"
         cx="4386.3247"
         id="ellipse14243"
         style="fill:#efc043;fill-opacity:1;stroke:none;stroke-width:30;stroke-linecap:round;stroke-miterlimit:4;stroke-dasharray:none;stroke-opacity:1" />
      <ellipse
         ry="20.973509"
         rx="21.62726"
         cy="-414.93112"
         cx="4219.0522"
         id="ellipse14245"
         style="fill:#e25a00;fill-opacity:1;stroke:none;stroke-width:30;stroke-linecap:round;stroke-miterlimit:4;stroke-dasharray:none;stroke-opacity:1" />
      <ellipse
         ry="25.907415"
         rx="23.735998"
         cy="-140.76114"
         cx="4275.1196"
         id="ellipse14247"
         style="fill:#2aae4a;fill-opacity:1;stroke:none;stroke-width:30;stroke-linecap:round;stroke-miterlimit:4;stroke-dasharray:none;stroke-opacity:1" />
      <ellipse
         ry="40.790394"
         rx="40.912331"
         cy="-279.10095"
         cx="4443.6338"
         id="ellipse14249"
         style="fill:#ef4b53;fill-opacity:1;stroke:none;stroke-width:30;stroke-linecap:round;stroke-miterlimit:4;stroke-dasharray:none;stroke-opacity:1" />
      <ellipse
         transform="matrix(0,1,-1,0,0,0)"
         style="fill:#efc043;fill-opacity:1;stroke:none;stroke-width:30;stroke-linecap:round;stroke-miterlimit:4;stroke-dasharray:none;stroke-opacity:1"
         id="ellipse14253"
         cx="-292.79971"
         cy="-5096.8979"
         rx="22.904909"
         ry="22.45929" />
      <ellipse
         transform="matrix(0,1,-1,0,0,0)"
         style="fill:#e25a00;fill-opacity:1;stroke:none;stroke-width:30;stroke-linecap:round;stroke-miterlimit:4;stroke-dasharray:none;stroke-opacity:1"
         id="ellipse14255"
         cx="-331.914"
         cy="-4641.4976"
         rx="41.166515"
         ry="39.922127" />
      <ellipse
         transform="matrix(0,1,-1,0,0,0)"
         style="fill:#2aae4a;fill-opacity:1;stroke:none;stroke-width:30;stroke-linecap:round;stroke-miterlimit:4;stroke-dasharray:none;stroke-opacity:1"
         id="ellipse14257"
         cx="-483.45169"
         cy="-4878.5654"
         rx="53.030422"
         ry="57.881752" />
      <ellipse
         transform="matrix(0,1,-1,0,0,0)"
         style="fill:#ef4b53;fill-opacity:1;stroke:none;stroke-width:30;stroke-linecap:round;stroke-miterlimit:4;stroke-dasharray:none;stroke-opacity:1"
         id="ellipse14259"
         cx="-573.15552"
         cy="-4715.9595"
         rx="22.67523"
         ry="22.607647" />
      <ellipse
         ry="41.832123"
         rx="43.317612"
         cy="-233.21535"
         cx="4869.5605"
         id="ellipse26362"
         style="fill:#61cbe6;fill-opacity:1;stroke:none;stroke-width:30;stroke-linecap:round;stroke-miterlimit:4;stroke-dasharray:none;stroke-opacity:1" />
      <ellipse
         ry="22.45929"
         rx="22.904909"
         cy="-4531.2124"
         cx="-100.87073"
         id="ellipse26364"
         style="fill:#efc043;fill-opacity:1;stroke:none;stroke-width:30;stroke-linecap:round;stroke-miterlimit:4;stroke-dasharray:none;stroke-opacity:1"
         transform="matrix(0,1,-1,0,0,0)" />
    </g>
  </g>
</svg>
